<?xml version="1.0" standalone="no"?>
<!DOCTYPE svg PUBLIC "-//W3C//DTD SVG 1.1//EN" "http://www.w3.org/Graphics/SVG/1.1/DTD/svg11.dtd" >
<svg xmlns="http://www.w3.org/2000/svg" xmlns:xlink="http://www.w3.org/1999/xlink" version="1.1">
<metadata>
Created by FontForge 20161116 at Mon Jun 13 17:25:20 2011
 By Jimmy Wärting
Designed by Christian Schwartz 2004?2010. Originally designed 1957-1961 by Max Miedinger with art direction by Eduard Hoffmann. Released as Neue Haas Grotesk by the Haas'sche Schriftgiesserei, and then revised and released as Helvetica by Linotype AG. Revival originally commissioned in 2004 by Mark Porter at The Guardian. Completed in 2010 for Richard Turley at Bloomberg Businessweek. Thinnest weight designed by Berton Hasebe.
</metadata>
<defs>
<font id="NeueHaasGroteskTextMedium" horiz-adv-x="500" >
  <font-face 
    font-family="NeueHaasGroteskText Medium"
    font-weight="500"
    font-stretch="normal"
    units-per-em="1000"
    panose-1="2 0 6 3 0 0 0 2 0 3"
    ascent="800"
    descent="-200"
    x-height="534"
    cap-height="744"
    bbox="-276 -255 1285 988"
    underline-thickness="50"
    underline-position="-100"
    unicode-range="U+0020-FB02"
  />
<missing-glyph horiz-adv-x="253" 
 />
    <glyph glyph-name=".notdef" horiz-adv-x="253" 
 />
    <glyph glyph-name="space" unicode=" " horiz-adv-x="253" 
 />
    <glyph glyph-name="exclam" unicode="!" horiz-adv-x="277" 
d="M105 239l-34 297v208h134v-208l-33 -297h-67zM69 0v139h140v-139h-140z" />
    <glyph glyph-name="quotedbl" unicode="&#x22;" horiz-adv-x="405" 
d="M242 476v268h111v-268h-111zM52 476v268h113v-268h-113z" />
    <glyph glyph-name="numbersign" unicode="#" horiz-adv-x="631" 
d="M73 430l17 100h100l28 183h88l-28 -183h126l28 183h87l-28 -183h103l-17 -100h-101l-21 -136h102l-17 -101h-100l-29 -193h-88l29 193h-125l-29 -193h-88l29 193h-102l17 101h100l21 136h-102zM263 430l-21 -136h126l21 136h-126z" />
    <glyph glyph-name="dollar" unicode="$" horiz-adv-x="652" 
d="M299 -117v110c-177 11 -264 110 -269 234h131c9 -76 50 -120 138 -131v219c-1 0 -1 0 -2 1c-136 32 -241 66 -241 207c0 123 102 194 243 199v77h62v-78c144 -11 224 -80 235 -197h-126c-8 55 -44 88 -109 98v-202c140 -32 251 -69 251 -213c0 -131 -108 -206 -251 -214
v-110h-62zM481 200c0 59 -43 79 -120 100v-205c66 8 120 44 120 105zM185 529c0 -51 35 -74 114 -95v190c-71 -7 -114 -40 -114 -95z" />
    <glyph glyph-name="percent" unicode="%" horiz-adv-x="915" 
d="M213 314c-104 0 -179 81 -179 207s76 207 179 207c104 0 178 -79 178 -207c0 -126 -73 -207 -178 -207zM217 0l396 712h85l-397 -712h-84zM701 -17c-104 0 -179 83 -179 208c0 126 77 207 179 207c104 0 180 -80 180 -207c0 -125 -73 -208 -180 -208zM213 391
c52 0 77 54 77 130c0 75 -26 132 -77 132s-75 -55 -75 -132c0 -76 24 -130 75 -130zM702 61c52 0 76 54 76 130s-27 132 -76 132c-51 0 -76 -56 -76 -132s25 -130 76 -130z" />
    <glyph glyph-name="ampersand" unicode="&#x26;" horiz-adv-x="694" 
d="M288 -14c-147 0 -253 83 -253 212c0 116 75 171 169 222l-2 3c-44 51 -68 102 -68 163c0 96 78 167 189 167c104 0 187 -60 187 -168c0 -93 -65 -145 -140 -185l12 -14c11 -16 80 -103 111 -145c16 39 25 82 29 127h111c-4 -77 -26 -150 -66 -214l123 -154h-155l-34 43
l-13 17c-55 -44 -121 -74 -200 -74zM291 92c51 0 95 18 132 49l-160 204c-61 -39 -97 -82 -97 -145c0 -64 57 -108 125 -108zM252 588c0 -41 22 -74 57 -110l6 -8c56 33 78 70 78 115c0 44 -28 74 -69 74c-43 0 -72 -30 -72 -71z" />
    <glyph glyph-name="quotesingle" unicode="'" horiz-adv-x="217" 
d="M52 476v268h113v-268h-113z" />
    <glyph glyph-name="parenleft" unicode="(" horiz-adv-x="353" 
d="M334 -134h-104c-89 118 -160 268 -160 461c0 190 73 351 160 457h104c-75 -119 -128 -269 -128 -457c0 -187 52 -330 128 -461z" />
    <glyph glyph-name="parenright" unicode=")" horiz-adv-x="353" 
d="M124 -134h-105c77 131 130 274 130 461c0 189 -54 337 -130 457h105c87 -106 160 -267 160 -457c0 -193 -71 -343 -160 -461z" />
    <glyph glyph-name="asterisk" unicode="*" horiz-adv-x="443" 
d="M147 398l-62 44l74 104l-117 38l28 69l112 -37v128h80v-128l111 37l26 -69l-115 -38l75 -104l-62 -44l-74 110z" />
    <glyph glyph-name="plus" unicode="+" horiz-adv-x="604" 
d="M58 290v101h190v200h108v-200h190v-101h-190v-200h-108v200h-190z" />
    <glyph glyph-name="comma" unicode="," horiz-adv-x="236" 
d="M50 -169v62c39 11 64 40 64 101v6h-65v139h139v-138c0 -109 -55 -161 -138 -170z" />
    <glyph glyph-name="hyphen" unicode="-" horiz-adv-x="368" 
d="M44 218v112h280v-112h-280z" />
    <glyph glyph-name="period" unicode="." horiz-adv-x="236" 
d="M49 0v139h139v-139h-139z" />
    <glyph glyph-name="slash" unicode="/" horiz-adv-x="453" 
d="M-21 -134l347 918h120l-347 -918h-120z" />
    <glyph glyph-name="zero" unicode="0" horiz-adv-x="680" 
d="M339 -17c-179 0 -295 146 -295 373c0 228 120 372 296 372c180 0 296 -143 296 -372c0 -227 -113 -373 -297 -373zM340 91c113 0 160 102 160 265c0 160 -49 266 -160 266c-110 0 -160 -105 -160 -266c0 -160 50 -265 160 -265z" />
    <glyph glyph-name="one" unicode="1" horiz-adv-x="417" 
d="M202 0v487h-165v88c98 3 178 43 194 143h103v-718h-132z" />
    <glyph glyph-name="two" unicode="2" horiz-adv-x="604" 
d="M559 0h-524c3 88 31 146 76 197c60 67 144 116 215 163c66 42 105 75 105 141c0 72 -46 119 -122 119c-41 0 -73 -13 -95 -38c-24 -26 -36 -65 -36 -116h-129c0 76 19 129 56 176c43 53 115 85 211 85c156 0 249 -96 249 -223c0 -104 -60 -156 -138 -207
c-74 -55 -178 -107 -220 -178v-5h352v-114z" />
    <glyph glyph-name="three" unicode="3" horiz-adv-x="625" 
d="M319 -17c-85 0 -155 21 -208 63c-55 44 -84 110 -85 187h126c4 -87 58 -145 162 -145c85 0 140 43 140 124c0 76 -55 115 -154 115h-44v95h41c89 0 138 38 138 103c0 64 -51 103 -123 103c-91 0 -136 -59 -139 -130h-125c3 132 98 230 267 230c143 0 250 -74 250 -198
c0 -77 -48 -122 -120 -146v-2c95 -27 143 -87 143 -180c0 -144 -122 -219 -269 -219z" />
    <glyph glyph-name="four" unicode="4" horiz-adv-x="640" 
d="M387 0v167h-339v117l347 436h120v-454h110v-99h-110v-167h-128zM142 263v-2c13 1 25 1 37 2c21 1 47 3 67 3h141v204c0 20 1 45 2 68l3 39h-2c-7 -11 -15 -23 -22 -34c-13 -19 -29 -43 -44 -62l-102 -129c-15 -19 -35 -39 -51 -58c-9 -11 -19 -21 -29 -31z" />
    <glyph glyph-name="five" unicode="5" horiz-adv-x="611" 
d="M303 -16c-157 0 -265 87 -276 213h130c13 -63 59 -104 142 -104c85 0 142 57 142 144c0 89 -61 142 -137 142c-64 0 -108 -25 -132 -56h-125l76 389h408v-109h-314l-39 -183h2c37 39 84 61 156 61c124 0 239 -93 239 -245c0 -155 -115 -252 -272 -252z" />
    <glyph glyph-name="six" unicode="6" horiz-adv-x="640" 
d="M339 -17c-91 0 -158 32 -205 84c-64 68 -89 161 -89 289c-1 113 24 208 77 276c51 63 119 96 216 96c146 0 227 -87 243 -184h-128c-8 41 -43 85 -113 85c-113 0 -163 -89 -170 -250h2c43 67 101 100 184 100c133 0 245 -105 245 -246c0 -143 -113 -250 -262 -250z
M335 84c80 0 142 62 142 146c0 88 -62 147 -143 147c-89 0 -150 -59 -150 -146c0 -85 66 -147 151 -147z" />
    <glyph glyph-name="seven" unicode="7" horiz-adv-x="566" 
d="M268 0h-139c13 253 146 485 285 602v2c-15 -1 -30 -2 -47 -3c-28 -1 -66 -2 -105 -2h-232v113h513v-103c-136 -128 -264 -345 -275 -609z" />
    <glyph glyph-name="eight" unicode="8" horiz-adv-x="638" 
d="M321 -17c-155 0 -286 72 -286 220c0 92 56 155 148 182v3c-76 25 -115 77 -115 148c0 116 103 192 251 192s251 -73 251 -190c0 -69 -38 -123 -114 -148v-3c93 -24 147 -92 147 -181c0 -150 -128 -223 -282 -223zM319 429c80 0 125 38 125 101s-45 102 -125 102
s-126 -39 -126 -102s46 -101 126 -101zM321 85c92 0 149 48 149 124c0 80 -55 129 -150 129s-151 -49 -151 -129c0 -77 56 -124 152 -124z" />
    <glyph glyph-name="nine" unicode="9" horiz-adv-x="641" 
d="M313 -17c-148 0 -244 85 -257 190h129c8 -45 50 -90 125 -90c50 0 88 18 114 54c31 39 45 100 49 188h-2c-44 -57 -102 -92 -182 -92c-139 0 -249 104 -249 247c0 141 113 248 268 248c77 0 139 -24 186 -63c75 -61 103 -160 103 -308c0 -132 -26 -236 -90 -300
c-47 -48 -110 -74 -194 -74zM310 334c91 0 150 59 150 147c0 86 -65 146 -149 146c-88 0 -147 -62 -147 -146c0 -85 62 -147 146 -147z" />
    <glyph glyph-name="colon" unicode=":" horiz-adv-x="243" 
d="M52 319v138h139v-138h-139zM52 0v139h139v-139h-139z" />
    <glyph glyph-name="semicolon" unicode=";" horiz-adv-x="243" 
d="M52 319v138h139v-138h-139zM53 -169v62c39 11 64 40 64 101v6h-65v139h139v-138c0 -109 -55 -161 -138 -170z" />
    <glyph glyph-name="less" unicode="&#x3c;" horiz-adv-x="544" 
d="M482 83l-425 180v119l425 180v-113l-197 -78c-28 -11 -62 -23 -90 -32c-17 -5 -33 -11 -49 -16v-2c16 -5 32 -10 49 -15c28 -9 63 -19 90 -30l197 -77v-116z" />
    <glyph glyph-name="equal" unicode="=" horiz-adv-x="602" 
d="M62 375v99h480v-99h-480zM62 174v99h480v-99h-480z" />
    <glyph glyph-name="greater" unicode="&#x3e;" horiz-adv-x="544" 
d="M62 562l425 -180v-119l-425 -180v112l198 79c27 11 62 23 90 32c17 5 33 11 49 16v2c-16 5 -32 10 -49 15c-28 9 -63 19 -90 30l-198 77v116z" />
    <glyph glyph-name="question" unicode="?" horiz-adv-x="565" 
d="M196 0v139h139v-139h-139zM324 239h-115c0 91 26 133 90 189c45 40 98 67 98 129c0 55 -43 92 -112 92c-84 0 -132 -56 -135 -132h-127c3 128 94 240 266 240c148 0 242 -82 242 -197c0 -78 -40 -125 -83 -160c-49 -39 -82 -60 -101 -83c-17 -21 -22 -42 -23 -78z" />
    <glyph glyph-name="at" unicode="@" horiz-adv-x="942" 
d="M424 97c-100 0 -164 74 -164 189c0 144 82 242 197 242c59 0 96 -27 115 -74h2l7 64h112l-33 -270c-6 -50 9 -75 46 -75c51 0 110 40 110 179c0 208 -137 312 -329 312c-194 0 -356 -136 -356 -369c0 -191 117 -331 330 -331c69 0 132 14 192 38l28 -69
c-69 -33 -139 -46 -218 -46c-245 0 -422 162 -422 408c0 288 219 448 447 448c219 0 414 -136 414 -390c0 -170 -88 -258 -203 -258c-69 0 -120 29 -136 85h-2c-30 -55 -76 -83 -137 -83zM453 183c69 0 107 64 107 155c0 64 -27 103 -82 103c-67 0 -101 -65 -101 -153
c0 -61 23 -105 76 -105z" />
    <glyph glyph-name="A" unicode="A" horiz-adv-x="718" 
d="M14 0l270 744h148l271 -744h-148l-59 177h-282l-60 -177h-140zM307 451l-59 -172h214l-57 172c-15 44 -26 87 -34 122c-5 20 -9 39 -13 57h-2c-5 -21 -11 -42 -16 -63c-9 -36 -21 -81 -33 -116z" />
    <glyph glyph-name="B" unicode="B" horiz-adv-x="701" 
d="M70 0v744h337c77 0 136 -19 175 -57c38 -35 57 -80 57 -136c0 -77 -41 -127 -122 -152v-3c93 -23 152 -85 152 -180c0 -67 -23 -118 -66 -154c-43 -40 -105 -62 -185 -62h-348zM207 437h180c72 0 117 35 117 99c0 61 -42 97 -110 97h-187v-196zM207 113h199
c43 0 74 12 94 32c20 19 30 44 30 76c0 76 -53 113 -128 113h-195v-221z" />
    <glyph glyph-name="C" unicode="C" horiz-adv-x="752" 
d="M398 -16c-216 0 -358 163 -358 386c0 221 138 388 359 388c85 0 155 -22 206 -61c60 -47 96 -113 105 -192h-138c-13 80 -75 136 -174 136c-141 0 -217 -116 -217 -271c0 -157 86 -269 218 -269c111 0 172 74 180 164h139c-3 -75 -38 -148 -90 -199
c-55 -55 -131 -82 -230 -82z" />
    <glyph glyph-name="D" unicode="D" horiz-adv-x="741" 
d="M71 0v744h293c215 0 338 -150 338 -376c0 -221 -121 -368 -346 -368h-285zM210 118h137c147 0 213 94 213 250c0 155 -62 258 -209 258h-141v-508z" />
    <glyph glyph-name="E" unicode="E" horiz-adv-x="668" 
d="M70 0v744h544v-118h-406v-184h359v-111h-359v-210h415v-121h-553z" />
    <glyph glyph-name="F" unicode="F" horiz-adv-x="632" 
d="M70 0v744h528v-119h-390v-191h325v-115h-325v-319h-138z" />
    <glyph glyph-name="G" unicode="G" horiz-adv-x="783" 
d="M636 0l-19 102h-4c-48 -81 -128 -119 -221 -119c-105 0 -192 39 -253 106c-64 69 -98 165 -98 280c0 121 40 224 113 295c60 60 141 94 248 94c182 0 288 -97 315 -237h-140c-20 69 -74 121 -173 121c-151 0 -222 -119 -222 -273c0 -159 89 -270 222 -270
c124 0 192 85 192 180v9h-180v108h313v-396h-93z" />
    <glyph glyph-name="H" unicode="H" horiz-adv-x="745" 
d="M70 0v744h138v-299h329v299h139v-744h-139v330h-329v-330h-138z" />
    <glyph glyph-name="I" unicode="I" horiz-adv-x="280" 
d="M70 0v744h139v-744h-139z" />
    <glyph glyph-name="J" unicode="J" horiz-adv-x="560" 
d="M268 -14c-157 0 -240 84 -240 241v38h130v-34c0 -99 36 -131 105 -131c65 0 98 37 98 110v534h139v-539c0 -63 -17 -112 -50 -148c-39 -44 -99 -71 -182 -71z" />
    <glyph glyph-name="K" unicode="K" horiz-adv-x="713" 
d="M70 0v744h138v-172c0 -60 -2 -119 -5 -158l316 330h168l-292 -298l313 -446h-162l-250 357l-88 -89v-268h-138z" />
    <glyph glyph-name="L" unicode="L" horiz-adv-x="600" 
d="M70 0v744h138v-623h362v-121h-500z" />
    <glyph glyph-name="M" unicode="M" horiz-adv-x="883" 
d="M70 0v744h183l122 -354c15 -44 30 -106 43 -158c7 -31 15 -61 22 -92h3c7 31 14 61 21 92c12 51 28 114 43 158l120 354h187v-744h-129v388c0 40 1 98 4 146c1 28 3 57 5 86h-2c-6 -27 -12 -53 -19 -78c-11 -44 -24 -96 -36 -133l-141 -409h-112l-142 409
c-12 37 -26 89 -37 133c-7 25 -13 51 -18 78h-2c1 -29 3 -58 4 -86c3 -48 5 -106 5 -146v-388h-124z" />
    <glyph glyph-name="N" unicode="N" horiz-adv-x="747" 
d="M70 0v744h142l247 -390c20 -33 42 -76 61 -111c11 -21 21 -41 32 -62h3c-1 23 -3 45 -4 67c-3 39 -4 86 -4 123v373h131v-744h-142l-246 388c-21 33 -43 77 -62 112c-11 21 -21 41 -32 62h-2c1 -23 2 -45 3 -67c3 -39 4 -86 4 -123v-372h-131z" />
    <glyph glyph-name="O" unicode="O" horiz-adv-x="812" 
d="M406 -17c-225 0 -366 165 -366 387c0 223 141 388 366 388s366 -165 366 -388c0 -222 -141 -387 -366 -387zM407 100c148 0 223 115 223 270s-75 274 -223 274s-226 -119 -226 -274s78 -270 226 -270z" />
    <glyph glyph-name="P" unicode="P" horiz-adv-x="668" 
d="M70 0v744h322c84 0 148 -25 189 -70c40 -43 63 -96 63 -163c0 -140 -90 -231 -246 -231h-188v-280h-140zM210 625v-234h166c85 0 129 46 129 118c0 76 -46 116 -127 116h-168z" />
    <glyph glyph-name="Q" unicode="Q" horiz-adv-x="811" 
d="M706 -64l-110 95c-53 -31 -117 -48 -190 -48c-226 0 -366 165 -366 387c0 223 140 388 366 388c225 0 365 -165 365 -388c0 -113 -35 -209 -99 -278l98 -85zM406 97c35 0 66 6 93 18l-92 81l63 72l105 -92c36 49 54 115 54 194c0 155 -75 274 -223 274
s-225 -119 -225 -274s77 -273 225 -273z" />
    <glyph glyph-name="R" unicode="R" horiz-adv-x="708" 
d="M70 0v744h351c139 0 239 -79 239 -209c0 -89 -40 -153 -137 -184v-3c79 -24 108 -69 116 -161c12 -109 13 -169 33 -180v-7h-140c-19 12 -19 70 -27 170c-8 88 -49 126 -138 126h-159v-296h-138zM208 631v-229h180c88 0 133 44 133 113c0 75 -39 116 -128 116h-185z" />
    <glyph glyph-name="S" unicode="S" horiz-adv-x="682" 
d="M353 -17c-204 0 -320 103 -325 255h139c10 -96 72 -144 187 -144c81 0 148 34 148 109c0 80 -75 98 -192 125c-139 32 -255 67 -255 217c0 140 116 212 275 212c175 0 272 -83 287 -220h-135c-11 73 -66 114 -154 114c-84 0 -138 -34 -138 -94c0 -68 72 -87 187 -111
c138 -29 265 -71 265 -232c0 -148 -124 -231 -289 -231z" />
    <glyph glyph-name="T" unicode="T" horiz-adv-x="661" 
d="M29 625v119h604v-119h-233v-625h-139v625h-232z" />
    <glyph glyph-name="U" unicode="U" horiz-adv-x="715" 
d="M358 -13c-185 0 -298 87 -298 264v493h138v-491c0 -101 54 -151 161 -151c101 0 158 53 158 153v489h139v-493c0 -176 -115 -264 -298 -264z" />
    <glyph glyph-name="V" unicode="V" horiz-adv-x="678" 
d="M264 0l-251 744h146l135 -422c11 -35 22 -82 31 -121c5 -23 11 -46 16 -70h2c5 24 11 47 16 70c9 39 20 86 31 121l133 422h142l-253 -744h-148z" />
    <glyph glyph-name="W" unicode="W" horiz-adv-x="983" 
d="M211 0l-198 744h142l88 -360c11 -47 21 -107 28 -156c4 -29 8 -58 11 -87h2l15 90c9 51 19 112 30 157l91 356h136l90 -355c11 -45 21 -107 29 -158c5 -30 9 -60 14 -90h2c4 29 8 59 13 88c8 51 18 109 30 156l88 359h142l-206 -744h-135l-95 389c-11 39 -20 94 -27 141
c-4 27 -8 54 -12 82h-2c-4 -28 -8 -55 -12 -82c-7 -47 -17 -102 -26 -141l-100 -389h-138z" />
    <glyph glyph-name="X" unicode="X" horiz-adv-x="701" 
d="M19 0l253 386l-233 358h159l84 -137c15 -27 32 -60 47 -88c8 -17 16 -33 24 -49h2c9 16 17 32 25 49c15 28 32 61 49 88l84 137h152l-233 -358l249 -386h-164l-95 160c-16 27 -33 62 -48 90c-8 17 -16 33 -23 49h-2c-8 -16 -16 -32 -25 -49c-15 -28 -34 -63 -50 -90
l-98 -160h-157z" />
    <glyph glyph-name="Y" unicode="Y" horiz-adv-x="692" 
d="M275 0v294l-261 450h153l105 -188c16 -31 34 -70 49 -102c8 -19 16 -38 25 -57h2c8 19 16 38 25 57c15 32 33 71 50 102l106 188h147l-262 -452v-292h-139z" />
    <glyph glyph-name="Z" unicode="Z" horiz-adv-x="679" 
d="M37 0v118l316 394c19 24 46 53 69 76c13 13 26 27 39 40v3c-17 -1 -35 -1 -52 -2c-31 -1 -67 -2 -94 -2h-251v117h557v-109l-308 -389c-23 -27 -51 -59 -75 -84c-14 -15 -28 -30 -43 -44v-3c19 1 37 1 55 2c31 1 69 3 98 3h288v-120h-599z" />
    <glyph glyph-name="bracketleft" unicode="[" horiz-adv-x="394" 
d="M78 -134v918h273v-100h-149v-717h149v-101h-273z" />
    <glyph glyph-name="backslash" unicode="\" horiz-adv-x="453" 
d="M474 -134h-120l-346 918h120z" />
    <glyph glyph-name="bracketright" unicode="]" horiz-adv-x="394" 
d="M42 -134v101h148v717h-148v100h273v-918h-273z" />
    <glyph glyph-name="asciicircum" unicode="^" horiz-adv-x="497" 
d="M17 441l175 303h113l175 -303h-124l-106 189h-2l-108 -189h-123z" />
    <glyph glyph-name="underscore" unicode="_" horiz-adv-x="437" 
d="M-2 -175v85h441v-85h-441z" />
    <glyph glyph-name="grave" unicode="`" horiz-adv-x="538" 
d="M231 618l-106 154h151l53 -154h-98z" />
    <glyph glyph-name="a" unicode="a" horiz-adv-x="566" 
d="M527 0h-123c-9 12 -15 33 -18 69h-2c-35 -47 -83 -82 -168 -82c-104 0 -182 54 -182 158c0 121 92 149 219 165c88 11 132 25 132 73c0 47 -32 77 -96 77c-72 0 -106 -33 -109 -86h-120c3 91 77 174 228 174c61 0 108 -8 143 -31c51 -31 76 -81 76 -152v-281
c0 -44 8 -67 20 -75v-9zM253 74c87 0 135 60 135 120v79c-25 -16 -65 -27 -104 -35c-79 -15 -123 -31 -123 -90c0 -57 43 -74 92 -74z" />
    <glyph glyph-name="b" unicode="b" horiz-adv-x="608" 
d="M348 -17c-72 0 -132 30 -164 94h-3v-77h-123v744h127v-176c0 -43 -1 -85 -4 -113h3c35 56 89 93 165 93c137 0 229 -111 229 -282c0 -174 -89 -283 -230 -283zM321 87c85 0 128 73 128 180c0 105 -43 182 -128 182c-97 0 -141 -82 -141 -183c0 -104 49 -179 141 -179z
" />
    <glyph glyph-name="c" unicode="c" horiz-adv-x="569" 
d="M302 -16c-165 0 -271 125 -271 282c0 160 105 282 269 282c136 0 222 -77 241 -192h-124c-12 59 -52 95 -116 95c-93 0 -141 -77 -141 -185c0 -104 48 -183 141 -183c71 0 112 40 119 111h124c-8 -124 -99 -210 -242 -210z" />
    <glyph glyph-name="d" unicode="d" horiz-adv-x="610" 
d="M263 -17c-141 0 -232 109 -232 283c0 171 96 282 232 282c75 0 129 -35 164 -91h2c-3 29 -4 71 -4 111v176h127v-744h-123v78h-2c-33 -63 -91 -95 -164 -95zM289 87c93 0 141 74 141 179c0 107 -48 183 -141 183c-86 0 -129 -77 -129 -182c0 -107 42 -180 129 -180z" />
    <glyph glyph-name="e" unicode="e" horiz-adv-x="587" 
d="M303 -16c-171 0 -272 125 -272 282c0 160 107 282 265 282c79 0 139 -27 184 -75c52 -56 77 -138 76 -238h-399c9 -92 58 -154 147 -154c61 0 101 26 118 70h124c-27 -96 -111 -167 -243 -167zM296 456c-84 0 -126 -57 -137 -141h266c-5 88 -52 141 -129 141z" />
    <glyph glyph-name="f" unicode="f" horiz-adv-x="374" 
d="M25 446v88h82v59c0 53 14 91 41 116c31 27 79 38 140 37c18 0 37 -1 57 -3v-95c-84 3 -111 -4 -111 -63v-51h110v-88h-110v-446h-127v446h-82z" />
    <glyph glyph-name="g" unicode="g" horiz-adv-x="605" 
d="M295 -186c-144 0 -231 58 -244 159h122c9 -44 49 -66 120 -66c86 0 129 39 129 117v13c0 29 1 55 2 74h-3c-33 -53 -79 -82 -151 -82c-131 0 -233 98 -233 257c0 160 98 262 226 262c74 0 127 -28 158 -83h2v69h123v-499c0 -76 -24 -130 -67 -167
c-44 -37 -108 -54 -184 -54zM293 127c96 0 134 70 134 163c0 96 -43 159 -135 159c-84 0 -129 -62 -129 -161s46 -161 130 -161z" />
    <glyph glyph-name="h" unicode="h" horiz-adv-x="589" 
d="M185 744v-200c0 -15 -1 -56 -2 -87h3c36 57 89 91 165 91c116 0 184 -70 184 -186v-362h-127v341c0 64 -37 102 -102 102c-71 0 -121 -54 -121 -130v-313h-127v744h127z" />
    <glyph glyph-name="i" unicode="i" horiz-adv-x="242" 
d="M56 621v123h130v-123h-130zM58 0v534h127v-534h-127z" />
    <glyph glyph-name="j" unicode="j" horiz-adv-x="243" 
d="M42 -176c-25 0 -53 3 -72 7v93h5c12 0 22 -1 33 0c33 3 50 14 50 53v557h127v-562c0 -61 -15 -94 -38 -115c-27 -24 -62 -33 -105 -33zM56 621v123h130v-123h-130z" />
    <glyph glyph-name="k" unicode="k" horiz-adv-x="568" 
d="M407 0l-160 256l-63 -63v-193h-126v744h126v-288c0 -51 -3 -100 -4 -131l201 209h151l-196 -195l219 -339h-148z" />
    <glyph glyph-name="l" unicode="l" horiz-adv-x="247" 
d="M60 0v744h128v-744h-128z" />
    <glyph glyph-name="m" unicode="m" horiz-adv-x="883" 
d="M58 0v534h123v-81h3c35 60 87 95 160 95c68 0 118 -33 142 -100h2c43 69 101 100 168 100c109 0 173 -70 173 -186v-362h-127v345c0 61 -35 98 -87 98c-63 0 -108 -51 -108 -127v-316h-127v345c0 61 -31 98 -84 98c-59 0 -111 -52 -111 -127v-316h-127z" />
    <glyph glyph-name="n" unicode="n" horiz-adv-x="589" 
d="M182 534v-78h3c35 60 90 92 166 92c116 0 184 -70 184 -186v-362h-127v341c0 64 -37 102 -102 102c-71 0 -121 -54 -121 -130v-313h-127v534h124z" />
    <glyph glyph-name="o" unicode="o" horiz-adv-x="606" 
d="M304 -16c-165 0 -273 125 -273 282c0 160 108 282 273 282s271 -122 271 -282c0 -157 -106 -282 -271 -282zM303 80c92 0 143 79 143 186c0 108 -51 188 -143 188c-94 0 -143 -80 -143 -188c0 -107 49 -186 143 -186z" />
    <glyph glyph-name="p" unicode="p" horiz-adv-x="611" 
d="M58 -179v713h123v-79h3c39 61 90 93 166 93c139 0 230 -111 230 -282c0 -172 -90 -283 -234 -283c-72 0 -129 30 -162 85h-3c3 -20 4 -53 4 -104v-143h-127zM322 84c84 0 129 74 129 179c0 107 -43 182 -130 182c-96 0 -141 -81 -141 -182c0 -100 44 -179 142 -179z" />
    <glyph glyph-name="q" unicode="q" horiz-adv-x="611" 
d="M427 -179v143c0 32 2 77 3 104h-2c-36 -55 -89 -85 -161 -85c-144 0 -234 111 -234 283c0 171 92 282 231 282c73 0 128 -30 163 -91h3v77h123v-713h-126zM290 84c98 0 142 76 142 179c0 105 -45 182 -141 182c-88 0 -130 -75 -130 -182c0 -105 45 -179 129 -179z" />
    <glyph glyph-name="r" unicode="r" horiz-adv-x="396" 
d="M181 534v-96h3c34 69 85 104 153 104c15 0 27 -2 34 -5v-114h-4c-11 3 -22 4 -35 4c-84 1 -147 -56 -147 -159v-268h-127v534h123z" />
    <glyph glyph-name="s" unicode="s" horiz-adv-x="531" 
d="M272 -17c-153 0 -240 73 -248 181h122c11 -64 59 -91 127 -91c71 0 103 30 103 73c0 53 -55 63 -138 79c-100 19 -195 45 -195 164c0 101 86 159 211 159c143 0 213 -64 226 -157h-121c-9 47 -45 71 -106 71c-60 0 -90 -27 -90 -64c0 -48 56 -55 136 -71
c101 -19 201 -42 201 -173c0 -112 -96 -171 -228 -171z" />
    <glyph glyph-name="t" unicode="t" horiz-adv-x="371" 
d="M26 447v87h82v170h125v-170h107v-87h-107v-299c0 -39 21 -50 57 -50c13 0 30 1 41 4h6v-99c-21 -4 -49 -8 -84 -8c-86 0 -145 32 -145 125v327h-82z" />
    <glyph glyph-name="u" unicode="u" horiz-adv-x="583" 
d="M525 0h-123v76h-2c-39 -59 -85 -90 -161 -90c-117 0 -185 72 -185 188v360h127v-342c0 -64 36 -100 100 -100c72 0 118 54 118 129v313h126v-534z" />
    <glyph glyph-name="v" unicode="v" horiz-adv-x="523" 
d="M190 0l-185 534h133l78 -249c11 -36 23 -81 31 -117c5 -21 9 -42 14 -62h3c4 20 8 41 13 62c8 36 19 81 31 117l81 249h129l-189 -534h-139z" />
    <glyph glyph-name="w" unicode="w" horiz-adv-x="803" 
d="M175 0l-167 534h132l69 -249c8 -31 16 -72 23 -104c3 -19 7 -38 10 -57h2c3 19 7 37 11 56c7 32 15 73 24 105l66 249h112l68 -249c8 -31 16 -71 23 -104c3 -19 7 -39 11 -58h2c3 19 7 38 10 57c7 32 13 72 24 105l71 249h128l-170 -534h-122l-67 254
c-7 28 -15 67 -22 99c-4 19 -8 38 -11 58h-2c-4 -20 -8 -39 -12 -58c-7 -32 -15 -71 -22 -99l-69 -254h-122z" />
    <glyph glyph-name="x" unicode="x" horiz-adv-x="576" 
d="M18 0l194 280l-173 254h146l53 -84c11 -19 22 -42 33 -61c6 -11 12 -23 17 -34h2c5 11 11 23 17 34c11 19 22 42 33 61l54 84h136l-169 -248l196 -286h-147l-70 107c-12 19 -25 44 -36 65c-7 12 -13 24 -18 36h-2c-6 -12 -12 -24 -19 -36c-11 -21 -25 -46 -36 -65
l-71 -107h-140z" />
    <glyph glyph-name="y" unicode="y" horiz-adv-x="539" 
d="M150 -182c-16 0 -84 3 -93 6v103h7c5 -3 40 -5 53 -5c43 0 67 16 78 59c0 10 5 59 -6 89l-184 464h135l88 -248c11 -33 23 -75 31 -108c5 -19 9 -39 14 -58h2c5 20 10 40 15 59c9 33 20 74 31 107l85 248h128l-207 -564c-46 -118 -88 -152 -177 -152z" />
    <glyph glyph-name="z" unicode="z" horiz-adv-x="526" 
d="M40 0v96l213 261c13 15 33 35 49 51c9 9 19 18 28 27v3l-39 -3c-23 -3 -49 -3 -69 -3h-162v102h419v-87l-212 -260c-15 -17 -37 -38 -54 -55c-11 -10 -21 -20 -31 -30v-3c13 1 27 1 41 2c23 1 52 3 75 3h194v-104h-452z" />
    <glyph glyph-name="braceleft" unicode="{" horiz-adv-x="384" 
d="M351 -134h-29c-133 0 -201 44 -201 185v154c0 49 -23 71 -90 74v98c67 3 90 25 90 74v151c0 141 68 182 201 182h29v-100h-25c-57 0 -81 -15 -81 -83v-164c0 -61 -22 -92 -73 -107v-3c51 -16 73 -46 73 -107v-169c0 -67 24 -84 81 -84h25v-101z" />
    <glyph glyph-name="bar" unicode="|" horiz-adv-x="246" 
d="M78 -134v918h89v-918h-89z" />
    <glyph glyph-name="braceright" unicode="}" horiz-adv-x="384" 
d="M42 -134v101h19c57 0 81 16 81 83v168c0 61 23 91 74 107v3c-51 15 -74 46 -74 107v165c0 67 -24 84 -81 84h-19v100h23c134 0 201 -43 201 -184v-151c0 -48 22 -71 86 -74v-97c-64 -3 -86 -26 -86 -74v-154c0 -141 -67 -184 -201 -184h-23z" />
    <glyph glyph-name="asciitilde" unicode="~" horiz-adv-x="453" 
d="M308 268c-31 0 -56 10 -80 21c-31 13 -47 23 -66 23c-21 0 -33 -15 -35 -45h-87c1 100 48 152 112 152c33 0 58 -11 82 -23c24 -13 40 -22 59 -22c25 0 35 15 36 44h87c-1 -92 -36 -150 -108 -150z" />
    <glyph glyph-name="Euro" unicode="&#x20ac;" horiz-adv-x="673" 
d="M29 391v62h59c29 164 141 275 292 275s244 -96 257 -228h-129c-15 75 -55 121 -131 121c-85 0 -134 -64 -153 -168h183v-62h-190c-1 -12 -1 -24 -1 -36c0 -15 0 -27 1 -40h190v-62h-182c20 -104 74 -160 159 -160c83 0 128 62 136 145h125c-8 -144 -102 -254 -260 -254
c-150 0 -265 102 -297 269h-59v62h51c-1 13 -1 25 -1 40c0 12 0 24 1 36h-51z" />
    <glyph glyph-name="quotesinglbase" unicode="&#x201a;" horiz-adv-x="216" 
d="M171 128v-124c0 -104 -60 -147 -127 -155v54c32 11 59 37 59 90v7h-57v128h125z" />
    <glyph glyph-name="florin" unicode="&#x192;" horiz-adv-x="433" 
d="M38 341v87h105l23 156c7 45 20 80 47 104c43 39 113 45 196 34v-95c-75 5 -108 -2 -116 -58l-20 -141h114v-87h-127l-51 -363c-8 -47 -21 -82 -46 -105c-39 -35 -99 -38 -168 -29v90c48 -3 77 2 85 55l51 352h-93z" />
    <glyph glyph-name="quotedblbase" unicode="&#x201e;" horiz-adv-x="408" 
d="M171 128v-124c0 -104 -60 -147 -127 -155v54c32 11 59 37 59 90v7h-57v128h125zM362 128v-124c0 -104 -60 -147 -127 -155v54c32 11 60 37 60 90v7h-57v128h124z" />
    <glyph glyph-name="ellipsis" unicode="&#x2026;" horiz-adv-x="769" 
d="M49 0v139h139v-139h-139zM315 0v139h140v-139h-140zM582 0v139h139v-139h-139z" />
    <glyph glyph-name="dagger" unicode="&#x2020;" horiz-adv-x="611" 
d="M44 435v107h194v202h133v-202h195v-107h-195v-564h-133v564h-194z" />
    <glyph glyph-name="daggerdbl" unicode="&#x2021;" horiz-adv-x="611" 
d="M44 435v107h194v202h133v-202h195v-107h-195v-255h195v-108h-195v-201h-133v201h-194v108h194v255h-194z" />
    <glyph glyph-name="circumflex" unicode="&#x2c6;" 
d="M83 621l103 136h129l102 -136h-116l-49 77h-2l-51 -77h-116z" />
    <glyph glyph-name="perthousand" unicode="&#x2030;" horiz-adv-x="1318" 
d="M213 0l396 712h84l-396 -712h-84zM213 314c-104 0 -179 81 -179 207s76 207 179 207c104 0 178 -79 178 -207c0 -126 -73 -207 -178 -207zM693 -17c-104 0 -179 83 -179 208c0 126 77 207 179 207c105 0 179 -80 179 -207c0 -125 -72 -208 -179 -208zM213 391
c52 0 77 54 77 130c0 75 -26 132 -77 132s-75 -55 -75 -132c0 -76 24 -130 75 -130zM693 61c52 0 76 54 76 130c0 75 -25 132 -76 132s-75 -56 -75 -132s24 -130 75 -130zM1106 -17c-107 0 -180 83 -180 208c0 126 76 207 180 207s179 -80 179 -207
c0 -125 -74 -208 -179 -208zM1106 61c52 0 76 54 76 130c0 75 -27 132 -76 132c-52 0 -76 -56 -76 -132s24 -130 76 -130z" />
    <glyph glyph-name="Scaron" unicode="&#x160;" horiz-adv-x="682" 
d="M353 -17c-204 0 -320 103 -325 255h139c10 -96 72 -144 187 -144c81 0 148 34 148 109c0 80 -75 98 -192 125c-139 32 -255 67 -255 217c0 140 116 212 275 212c175 0 272 -83 287 -220h-135c-11 73 -66 114 -154 114c-84 0 -138 -34 -138 -94c0 -68 72 -87 187 -111
c138 -29 265 -71 265 -232c0 -148 -124 -231 -289 -231zM497 908l-105 -123h-129l-104 123h117l50 -59h2l52 59h117z" />
    <glyph glyph-name="guilsinglleft" unicode="&#x2039;" horiz-adv-x="311" 
d="M242 51l-174 158v126l174 157v-123l-108 -97v-2l108 -96v-123z" />
    <glyph glyph-name="OE" unicode="&#x152;" horiz-adv-x="1135" 
d="M388 -17c-205 0 -348 165 -348 387c0 223 144 388 348 388c84 0 144 -34 187 -90v76h503v-118h-376v-185h329v-111h-329v-206h388v-124h-515v70c-43 -56 -102 -87 -187 -87zM394 99c101 0 175 72 175 187v162c0 119 -74 196 -175 196c-136 0 -213 -119 -213 -274
s76 -271 213 -271z" />
    <glyph glyph-name="quoteleft" unicode="&#x2018;" horiz-adv-x="216" 
d="M46 468v124c0 104 60 147 127 155v-55c-32 -9 -60 -37 -60 -89v-7h58v-128h-125z" />
    <glyph glyph-name="quoteright" unicode="&#x2019;" horiz-adv-x="216" 
d="M171 744v-124c0 -105 -60 -147 -127 -155v54c32 11 59 37 59 90v7h-57v128h125z" />
    <glyph glyph-name="quotedblleft" unicode="&#x201c;" horiz-adv-x="408" 
d="M238 468v124c0 104 60 147 126 155v-55c-32 -9 -59 -37 -59 -89v-7h57v-128h-124zM46 468v124c0 104 60 147 127 155v-55c-32 -9 -60 -37 -60 -89v-7h58v-128h-125z" />
    <glyph glyph-name="quotedblright" unicode="&#x201d;" horiz-adv-x="408" 
d="M171 744v-124c0 -105 -60 -147 -127 -155v54c32 11 59 37 59 90v7h-57v128h125zM362 744v-124c0 -105 -60 -147 -127 -155v54c32 11 60 37 60 90v7h-57v128h124z" />
    <glyph glyph-name="bullet" unicode="&#x2022;" horiz-adv-x="371" 
d="M186 196c-77 0 -140 62 -140 139s63 141 140 141c76 0 139 -64 139 -141s-63 -139 -139 -139z" />
    <glyph glyph-name="endash" unicode="&#x2013;" 
d="M0 210v109h500v-109h-500z" />
    <glyph glyph-name="emdash" unicode="&#x2014;" horiz-adv-x="1000" 
d="M200 210v109h600v-109h-600z" />
    <glyph glyph-name="tilde" unicode="&#x2dc;" 
d="M321 621c-56 0 -99 40 -127 40c-17 0 -30 -15 -33 -40h-74c1 84 41 125 97 125c59 0 90 -40 126 -40c20 0 28 15 31 38h75c-3 -76 -34 -123 -95 -123z" />
    <glyph glyph-name="trademark" unicode="&#x2122;" horiz-adv-x="920" 
d="M437 362v382h129l42 -139c8 -27 16 -63 23 -92c4 -17 8 -35 12 -52h2c3 17 7 35 11 52c7 29 16 65 24 92l42 139h131v-382h-85v126c0 32 0 73 1 108c1 20 1 40 2 59h-3c-5 -18 -9 -36 -14 -54c-8 -31 -19 -72 -30 -105l-41 -134h-79l-42 134c-11 35 -21 74 -29 105
c-5 18 -9 36 -14 54h-2c0 -19 0 -39 1 -59c1 -35 2 -76 2 -108v-126h-83zM45 666v78h325v-78h-115v-304h-94v304h-116z" />
    <glyph glyph-name="scaron" unicode="&#x161;" horiz-adv-x="531" 
d="M426 755l-103 -137h-129l-102 137h116l49 -77h2l51 77h116zM272 -17c-153 0 -240 73 -248 181h122c11 -64 59 -91 127 -91c71 0 103 30 103 73c0 53 -55 63 -138 79c-100 19 -195 45 -195 164c0 101 86 159 211 159c143 0 213 -64 226 -157h-121c-9 47 -45 71 -106 71
c-60 0 -90 -27 -90 -64c0 -48 56 -55 136 -71c101 -19 201 -42 201 -173c0 -112 -96 -171 -228 -171z" />
    <glyph glyph-name="guilsinglright" unicode="&#x203a;" horiz-adv-x="311" 
d="M68 492l174 -158v-125l-174 -158v123l109 97v2l-109 97v122z" />
    <glyph glyph-name="oe" unicode="&#x153;" horiz-adv-x="972" 
d="M696 -16c-92 0 -160 40 -201 107c-40 -65 -107 -107 -200 -107c-162 0 -264 125 -264 282c0 160 102 282 264 282c93 0 161 -41 201 -108c40 67 106 108 194 108c74 0 133 -25 176 -74c52 -56 76 -139 76 -239h-387c9 -92 58 -154 142 -154c60 0 92 26 111 70h123
c-24 -96 -108 -167 -235 -167zM296 80c90 0 137 79 137 186c0 108 -47 188 -137 188c-92 0 -136 -80 -136 -188c0 -107 44 -186 136 -186zM690 456c-81 0 -122 -57 -133 -141h253c-5 88 -47 141 -120 141z" />
    <glyph glyph-name="Ydieresis" unicode="&#x178;" horiz-adv-x="692" 
d="M275 0v294l-261 450h153l105 -188c16 -31 34 -70 49 -102c8 -19 16 -38 25 -57h2c8 19 16 38 25 57c15 32 33 71 50 102l106 188h147l-262 -452v-292h-139zM171 785v122h125v-122h-125zM396 785v122h125v-122h-125z" />
    <glyph glyph-name="uni00A0" unicode="&#xa0;" horiz-adv-x="241" 
 />
    <glyph glyph-name="exclamdown" unicode="&#xa1;" horiz-adv-x="277" 
d="M172 373l34 -297v-208h-134v208l33 297h67zM209 612v-139h-140v139h140z" />
    <glyph glyph-name="cent" unicode="&#xa2;" horiz-adv-x="571" 
d="M269 -124v110c-148 16 -238 133 -238 280c0 149 91 265 238 281v88h61v-88c121 -11 197 -86 214 -194h-123c-11 51 -42 87 -91 96v-365c55 11 87 50 94 111h121c-8 -118 -87 -199 -215 -210v-109h-61zM158 266c0 -93 38 -164 111 -181v363c-73 -16 -111 -87 -111 -182z
" />
    <glyph glyph-name="sterling" unicode="&#xa3;" horiz-adv-x="612" 
d="M44 307v81h54c-17 39 -33 76 -33 127c0 121 93 212 256 212c71 0 131 -17 178 -56c48 -40 77 -99 78 -187h-128c-1 99 -55 138 -128 138c-77 0 -118 -42 -118 -110c0 -44 17 -83 33 -124h145v-81h-122c2 -13 3 -26 3 -39c0 -61 -29 -105 -93 -156l2 -3c39 20 63 27 98 27
c73 0 99 -33 157 -33c43 0 77 22 102 46l62 -99c-43 -37 -99 -64 -164 -64c-98 0 -134 53 -216 53c-41 0 -75 -22 -106 -45l-68 98c60 41 105 85 105 156c0 21 -3 40 -10 59h-87z" />
    <glyph glyph-name="currency" unicode="&#xa4;" horiz-adv-x="524" 
d="M262 227c68 0 105 54 105 130s-37 131 -105 131s-108 -55 -108 -131s40 -130 108 -130zM82 107l-63 62l68 69c-22 35 -33 75 -33 119c0 43 11 83 33 118l-68 70l63 61l68 -70c31 20 68 32 112 32c43 0 80 -12 111 -32l68 70l64 -61l-70 -70c22 -34 33 -73 33 -118
c0 -43 -12 -85 -33 -118l70 -70l-64 -62l-69 70c-30 -20 -67 -30 -110 -30s-80 10 -111 30z" />
    <glyph glyph-name="yen" unicode="&#xa5;" horiz-adv-x="646" 
d="M79 274v61h158l-221 378h147l79 -148c19 -33 38 -77 54 -113c9 -21 19 -43 28 -65h2c9 22 19 44 28 65c16 36 36 80 55 113l79 148h143l-221 -378h160v-61h-181v-76h181v-61h-181v-137h-129v137h-181v61h181v76h-181z" />
    <glyph glyph-name="brokenbar" unicode="&#xa6;" horiz-adv-x="246" 
d="M78 386v398h89v-398h-89zM78 -134v415h89v-415h-89z" />
    <glyph glyph-name="section" unicode="&#xa7;" horiz-adv-x="646" 
d="M332 -190c-148 0 -238 89 -241 198h121c3 -55 42 -97 118 -97c60 0 92 30 92 69c0 52 -61 73 -181 132c-126 59 -202 108 -202 209c0 75 49 122 126 142c-33 29 -53 59 -53 108c0 99 86 165 213 165c136 0 215 -73 222 -184h-117c-5 48 -35 84 -103 84
c-61 0 -90 -27 -90 -64c0 -47 54 -69 158 -117c113 -54 214 -103 214 -212c0 -83 -50 -126 -123 -145c36 -31 62 -67 62 -118c0 -107 -85 -170 -216 -170zM335 353c-41 19 -80 38 -109 54c-44 -11 -69 -36 -69 -71c0 -47 35 -66 142 -122c36 -19 83 -42 119 -62
c47 13 69 40 69 76c0 49 -47 71 -152 125z" />
    <glyph glyph-name="dieresis" unicode="&#xa8;" 
d="M300 621v123h122v-123h-122zM78 621v123h122v-123h-122z" />
    <glyph glyph-name="copyright" unicode="&#xa9;" horiz-adv-x="865" 
d="M433 -18c-214 0 -382 165 -382 387c0 223 168 388 382 388s382 -165 382 -388c0 -222 -168 -387 -382 -387zM433 28c186 0 326 146 326 341c0 196 -140 342 -326 342c-187 0 -328 -146 -328 -342c0 -195 141 -341 328 -341zM438 145c-127 0 -214 95 -214 226
s83 229 214 229c49 0 90 -14 121 -38c39 -27 60 -69 65 -116h-101c-7 37 -35 68 -86 68c-73 0 -108 -63 -108 -143c0 -83 42 -140 110 -140c55 0 84 35 89 78h99c-3 -44 -20 -87 -51 -115c-35 -31 -75 -49 -138 -49z" />
    <glyph glyph-name="ordfeminine" unicode="&#xaa;" horiz-adv-x="532" 
d="M483 245h-115c-8 11 -13 30 -16 62h-1c-27 -39 -69 -72 -144 -72c-91 0 -164 48 -164 139c0 108 84 135 196 148c80 9 114 20 114 61s-25 65 -81 65c-64 0 -91 -29 -98 -74h-110c5 81 72 154 206 154c56 0 99 -9 132 -30c41 -27 64 -70 64 -131v-250c0 -35 6 -57 17 -65
v-7zM238 314c76 0 117 50 117 103v64c-21 -12 -57 -20 -92 -27c-71 -11 -104 -27 -104 -76s36 -64 79 -64z" />
    <glyph glyph-name="guillemotleft" unicode="&#xab;" horiz-adv-x="513" 
d="M445 60l-160 151v123l160 151v-119l-98 -94v-2l98 -94v-116zM227 60l-159 151v123l159 151v-119l-97 -94v-2l97 -94v-116z" />
    <glyph glyph-name="logicalnot" unicode="&#xac;" horiz-adv-x="555" 
d="M58 337v103h426v-274h-109v171h-317z" />
    <glyph glyph-name="uni00AD" unicode="&#xad;" horiz-adv-x="368" 
d="M44 218v112h280v-112h-280z" />
    <glyph glyph-name="registered" unicode="&#xae;" horiz-adv-x="657" 
d="M329 172c-161 0 -289 124 -289 292c0 169 128 293 289 293c160 0 288 -124 288 -293c0 -168 -128 -292 -288 -292zM329 213c139 0 240 107 240 251c0 145 -101 252 -240 252s-240 -107 -240 -252c0 -144 101 -251 240 -251zM212 315v304h145c59 0 105 -31 105 -87
c0 -35 -17 -61 -60 -73v-2c35 -9 46 -23 50 -59c5 -36 4 -73 15 -77v-6h-70c-9 4 -9 38 -13 71c-2 30 -19 45 -51 45h-49v-116h-72zM284 562v-77h59c32 0 48 13 48 39c0 23 -15 38 -47 38h-60z" />
    <glyph glyph-name="macron" unicode="&#xaf;" 
d="M104 636v94h294v-94h-294z" />
    <glyph glyph-name="degree" unicode="&#xb0;" horiz-adv-x="412" 
d="M206 410c-89 0 -164 69 -164 158s75 160 164 160c91 0 165 -71 165 -160s-74 -158 -165 -158zM206 479c51 0 83 38 83 89s-32 91 -83 91s-83 -40 -83 -91s32 -89 83 -89z" />
    <glyph glyph-name="plusminus" unicode="&#xb1;" horiz-adv-x="604" 
d="M58 342v100h190v170h108v-170h190v-100h-190v-171h-108v171h-190zM58 0v98h488v-98h-488z" />
    <glyph glyph-name="twosuperior" unicode="&#xb2;" horiz-adv-x="416" 
d="M384 287h-356c3 96 59 148 121 191c70 49 131 70 131 127c0 40 -25 66 -68 66c-47 0 -76 -34 -76 -86h-100c0 107 71 168 180 168c105 0 168 -65 168 -144c0 -75 -45 -109 -96 -144c-44 -31 -105 -59 -127 -94h223v-84z" />
    <glyph glyph-name="threesuperior" unicode="&#xb3;" horiz-adv-x="425" 
d="M216 276c-124 0 -195 68 -195 159h100c3 -44 29 -79 89 -79c51 0 80 24 80 69s-31 65 -87 65h-28v73h25c51 0 79 19 79 58c0 36 -28 58 -68 58c-51 0 -74 -32 -77 -71h-99c3 82 68 146 179 146c96 0 166 -49 166 -128c0 -48 -30 -76 -81 -93v-1c65 -16 97 -54 97 -113
c0 -96 -80 -143 -180 -143z" />
    <glyph glyph-name="acute" unicode="&#xb4;" 
d="M190 618l53 154h150l-105 -154h-98z" />
    <glyph glyph-name="mu" unicode="&#xb5;" horiz-adv-x="587" 
d="M58 -179v713h127v-342c0 -64 36 -100 100 -100c72 0 118 54 118 129v313h126v-534h-123v76h-2c-32 -51 -78 -86 -149 -86c-33 0 -56 8 -71 24h-2c0 -9 0 -19 1 -30c1 -19 2 -43 2 -70v-93h-127z" />
    <glyph glyph-name="paragraph" unicode="&#xb6;" horiz-adv-x="589" 
d="M278 358h-37c-129 0 -204 75 -204 192c0 59 21 106 57 142c35 35 86 52 154 52h272v-884h-81v794h-81v-794h-80v498z" />
    <glyph glyph-name="periodcentered" unicode="&#xb7;" horiz-adv-x="246" 
d="M53 258v140h140v-140h-140z" />
    <glyph glyph-name="cedilla" unicode="&#xb8;" 
d="M227 -209c-48 0 -85 13 -112 30l18 36c23 -11 47 -16 72 -16c31 0 55 7 55 34c0 21 -15 30 -38 30c-16 0 -27 -3 -38 -7l-17 26l72 76h64l-63 -55v-2c50 8 108 -12 108 -71c0 -51 -49 -81 -121 -81z" />
    <glyph glyph-name="onesuperior" unicode="&#xb9;" horiz-adv-x="314" 
d="M143 287v298h-114v71c72 3 122 29 133 93h87v-462h-106z" />
    <glyph glyph-name="ordmasculine" unicode="&#xba;" horiz-adv-x="553" 
d="M277 232c-147 0 -240 108 -240 247c0 140 93 249 240 249c148 0 239 -109 239 -249c0 -139 -91 -247 -239 -247zM277 318c79 0 119 68 119 161s-40 163 -119 163c-80 0 -120 -70 -120 -163s40 -161 120 -161z" />
    <glyph glyph-name="guillemotright" unicode="&#xbb;" horiz-adv-x="513" 
d="M68 485l159 -152v-123l-159 -150v118l98 94v2l-98 94v117zM285 485l160 -152v-123l-160 -150v118l98 94v2l-98 94v117z" />
    <glyph glyph-name="onequarter" unicode="&#xbc;" horiz-adv-x="874" 
d="M678 -110v100h-222v92l223 270h104v-286h69v-76h-69v-100h-105zM56 -130l637 874h96l-638 -874h-95zM146 287v298h-114v71c72 3 122 29 133 93h87v-462h-106zM524 63v-2c9 1 18 1 27 2c15 1 33 3 48 3h79v111c0 15 0 34 3 49c1 9 3 18 4 27h-2c-5 -9 -11 -17 -16 -24
c-9 -13 -20 -30 -31 -41l-55 -68c-11 -13 -24 -27 -36 -38c-7 -7 -14 -13 -21 -19z" />
    <glyph glyph-name="onehalf" unicode="&#xbd;" horiz-adv-x="920" 
d="M884 -110h-356c3 97 60 147 121 190c70 49 131 71 131 128c0 40 -25 66 -68 66c-47 0 -76 -34 -76 -86h-100c0 105 71 168 180 168c105 0 168 -65 168 -144c0 -75 -45 -109 -96 -144c-44 -31 -105 -59 -127 -94h223v-84zM146 287v298h-114v71c72 3 122 29 133 93h87v-462
h-106zM52 -130l637 874h96l-638 -874h-95z" />
    <glyph glyph-name="threequarters" unicode="&#xbe;" horiz-adv-x="962" 
d="M766 -110v100h-222v92l223 270h104v-286h69v-76h-69v-100h-105zM219 276c-124 0 -195 68 -195 159h100c3 -44 29 -79 89 -79c51 0 80 24 80 69s-31 65 -87 65h-28v73h25c51 0 79 19 79 58c0 36 -28 58 -68 58c-51 0 -74 -32 -77 -71h-99c3 82 68 146 179 146
c96 0 166 -49 166 -128c0 -48 -30 -76 -81 -93v-1c65 -16 97 -54 97 -113c0 -96 -80 -143 -180 -143zM140 -130l637 874h96l-638 -874h-95zM612 63v-2c9 1 18 1 27 2c15 1 33 3 48 3h79v111c0 15 0 34 3 49c1 9 3 18 4 27h-2c-5 -9 -11 -17 -16 -24c-9 -13 -20 -30 -31 -41
l-55 -68c-11 -13 -24 -27 -36 -38c-7 -7 -14 -13 -21 -19z" />
    <glyph glyph-name="questiondown" unicode="&#xbf;" horiz-adv-x="565" 
d="M369 612v-139h-140v139h140zM240 373h115c0 -91 -25 -132 -90 -189c-45 -40 -98 -67 -98 -129c0 -55 44 -92 113 -92c84 0 132 56 135 132h126c-5 -128 -91 -240 -265 -240c-148 0 -242 82 -242 197c0 77 39 125 83 160c49 39 81 60 100 83c17 21 23 42 23 78z" />
    <glyph glyph-name="Agrave" unicode="&#xc0;" horiz-adv-x="718" 
d="M14 0l270 744h148l271 -744h-148l-59 177h-282l-60 -177h-140zM307 451l-59 -172h214l-57 172c-15 44 -26 87 -34 122c-5 20 -9 39 -13 57h-2c-5 -21 -11 -42 -16 -63c-9 -36 -21 -81 -33 -116zM306 785l-100 128h154l47 -128h-101z" />
    <glyph glyph-name="Aacute" unicode="&#xc1;" horiz-adv-x="718" 
d="M14 0l270 744h148l271 -744h-148l-59 177h-282l-60 -177h-140zM307 451l-59 -172h214l-57 172c-15 44 -26 87 -34 122c-5 20 -9 39 -13 57h-2c-5 -21 -11 -42 -16 -63c-9 -36 -21 -81 -33 -116zM301 785l48 128h154l-100 -128h-102z" />
    <glyph glyph-name="Acircumflex" unicode="&#xc2;" horiz-adv-x="718" 
d="M14 0l270 744h148l271 -744h-148l-59 177h-282l-60 -177h-140zM307 451l-59 -172h214l-57 172c-15 44 -26 87 -34 122c-5 20 -9 39 -13 57h-2c-5 -21 -11 -42 -16 -63c-9 -36 -21 -81 -33 -116zM188 785l105 123h129l104 -123h-117l-50 59h-2l-52 -59h-117z" />
    <glyph glyph-name="Atilde" unicode="&#xc3;" horiz-adv-x="718" 
d="M14 0l270 744h148l271 -744h-148l-59 177h-282l-60 -177h-140zM307 451l-59 -172h214l-57 172c-15 44 -26 87 -34 122c-5 20 -9 39 -13 57h-2c-5 -21 -11 -42 -16 -63c-9 -36 -21 -81 -33 -116zM428 786c-56 0 -99 40 -127 40c-16 0 -29 -16 -32 -40h-75
c1 83 41 125 97 125c60 0 89 -39 125 -39c20 0 28 14 31 37h76c-3 -76 -34 -123 -95 -123z" />
    <glyph glyph-name="Adieresis" unicode="&#xc4;" horiz-adv-x="718" 
d="M14 0l270 744h148l271 -744h-148l-59 177h-282l-60 -177h-140zM307 451l-59 -172h214l-57 172c-15 44 -26 87 -34 122c-5 20 -9 39 -13 57h-2c-5 -21 -11 -42 -16 -63c-9 -36 -21 -81 -33 -116zM409 785v122h125v-122h-125zM184 785v122h125v-122h-125z" />
    <glyph glyph-name="Aring" unicode="&#xc5;" horiz-adv-x="718" 
d="M14 0l270 744h148l271 -744h-148l-59 177h-282l-60 -177h-140zM360 777c-61 0 -110 46 -110 106c0 58 49 105 110 105c59 0 108 -47 108 -105c0 -60 -49 -106 -108 -106zM307 451l-59 -172h214l-57 172c-15 44 -26 87 -34 122c-5 20 -9 39 -13 57h-2
c-5 -21 -11 -42 -16 -63c-9 -36 -21 -81 -33 -116zM360 827c31 0 53 24 53 56c0 31 -22 56 -53 56c-33 0 -55 -25 -55 -56c0 -32 22 -56 55 -56z" />
    <glyph glyph-name="AE" unicode="&#xc6;" horiz-adv-x="1029" 
d="M972 744v-118h-372v-185h326v-111h-326v-206h384v-124h-524v179h-244l-61 -179h-138l261 744h694zM368 626l-117 -345h209v345h-92z" />
    <glyph glyph-name="Ccedilla" unicode="&#xc7;" horiz-adv-x="752" 
d="M359 -209c-48 0 -85 13 -112 30l18 36c23 -11 47 -16 72 -16c31 0 55 7 55 34c0 21 -15 30 -38 30c-16 0 -27 -3 -38 -7l-17 26l58 62c-192 19 -317 175 -317 384c0 221 138 388 359 388c85 0 155 -22 206 -61c60 -47 96 -113 105 -192h-138c-13 80 -75 136 -174 136
c-141 0 -217 -116 -217 -271c0 -157 86 -269 218 -269c111 0 172 74 180 164h139c-3 -75 -38 -148 -90 -199c-51 -51 -122 -78 -211 -81l-45 -40v-2c50 8 108 -12 108 -71c0 -51 -49 -81 -121 -81z" />
    <glyph glyph-name="Egrave" unicode="&#xc8;" horiz-adv-x="668" 
d="M70 0v744h544v-118h-406v-184h359v-111h-359v-210h415v-121h-553zM300 785l-100 128h154l47 -128h-101z" />
    <glyph glyph-name="Eacute" unicode="&#xc9;" horiz-adv-x="668" 
d="M70 0v744h544v-118h-406v-184h359v-111h-359v-210h415v-121h-553zM295 785l48 128h154l-100 -128h-102z" />
    <glyph glyph-name="Ecircumflex" unicode="&#xca;" horiz-adv-x="668" 
d="M70 0v744h544v-118h-406v-184h359v-111h-359v-210h415v-121h-553zM181 785l105 123h129l104 -123h-117l-50 59h-2l-52 -59h-117z" />
    <glyph glyph-name="Edieresis" unicode="&#xcb;" horiz-adv-x="668" 
d="M70 0v744h544v-118h-406v-184h359v-111h-359v-210h415v-121h-553zM178 785v122h125v-122h-125zM403 785v122h125v-122h-125z" />
    <glyph glyph-name="Igrave" unicode="&#xcc;" horiz-adv-x="280" 
d="M70 0v744h139v-744h-139zM88 785l-100 128h154l47 -128h-101z" />
    <glyph glyph-name="Iacute" unicode="&#xcd;" horiz-adv-x="280" 
d="M70 0v744h139v-744h-139zM83 785l48 128h154l-100 -128h-102z" />
    <glyph glyph-name="Icircumflex" unicode="&#xce;" horiz-adv-x="280" 
d="M70 0v744h139v-744h-139zM-31 785l105 123h129l104 -123h-117l-50 59h-2l-52 -59h-117z" />
    <glyph glyph-name="Idieresis" unicode="&#xcf;" horiz-adv-x="280" 
d="M70 0v744h139v-744h-139zM180 785v122h119v-122h-119zM-20 785v122h120v-122h-120z" />
    <glyph glyph-name="Eth" unicode="&#xd0;" horiz-adv-x="747" 
d="M11 320v111h66v313h294c216 0 338 -150 338 -376c0 -221 -120 -368 -347 -368h-285v320h-66zM216 118h138c147 0 213 94 213 250c0 155 -62 258 -209 258h-142v-195h189v-111h-189v-202z" />
    <glyph glyph-name="Ntilde" unicode="&#xd1;" horiz-adv-x="747" 
d="M451 786c-56 0 -99 40 -127 40c-16 0 -29 -16 -32 -40h-75c1 83 41 125 97 125c60 0 89 -39 125 -39c20 0 28 14 31 37h76c-3 -76 -34 -123 -95 -123zM70 0v744h142l247 -390c20 -33 42 -76 61 -111c11 -21 21 -41 32 -62h3c-1 23 -3 45 -4 67c-3 39 -4 86 -4 123v373
h131v-744h-142l-246 388c-21 33 -43 77 -62 112c-11 21 -21 41 -32 62h-2c1 -23 2 -45 3 -67c3 -39 4 -86 4 -123v-372h-131z" />
    <glyph glyph-name="Ograve" unicode="&#xd2;" horiz-adv-x="812" 
d="M353 785l-100 128h154l47 -128h-101zM406 -17c-225 0 -366 165 -366 387c0 223 141 388 366 388s366 -165 366 -388c0 -222 -141 -387 -366 -387zM407 100c148 0 223 115 223 270s-75 274 -223 274s-226 -119 -226 -274s78 -270 226 -270z" />
    <glyph glyph-name="Oacute" unicode="&#xd3;" horiz-adv-x="812" 
d="M348 785l48 128h154l-100 -128h-102zM406 -17c-225 0 -366 165 -366 387c0 223 141 388 366 388s366 -165 366 -388c0 -222 -141 -387 -366 -387zM407 100c148 0 223 115 223 270s-75 274 -223 274s-226 -119 -226 -274s78 -270 226 -270z" />
    <glyph glyph-name="Ocircumflex" unicode="&#xd4;" horiz-adv-x="812" 
d="M406 -17c-225 0 -366 165 -366 387c0 223 141 388 366 388s366 -165 366 -388c0 -222 -141 -387 -366 -387zM407 100c148 0 223 115 223 270s-75 274 -223 274s-226 -119 -226 -274s78 -270 226 -270zM234 785l105 123h129l104 -123h-117l-50 59h-2l-52 -59h-117z" />
    <glyph glyph-name="Otilde" unicode="&#xd5;" horiz-adv-x="812" 
d="M475 786c-56 0 -99 40 -127 40c-16 0 -29 -16 -32 -40h-75c1 83 41 125 97 125c60 0 89 -39 125 -39c20 0 28 14 31 37h76c-3 -76 -34 -123 -95 -123zM406 -17c-225 0 -366 165 -366 387c0 223 141 388 366 388s366 -165 366 -388c0 -222 -141 -387 -366 -387zM407 100
c148 0 223 115 223 270s-75 274 -223 274s-226 -119 -226 -274s78 -270 226 -270z" />
    <glyph glyph-name="Odieresis" unicode="&#xd6;" horiz-adv-x="812" 
d="M456 785v122h125v-122h-125zM231 785v122h125v-122h-125zM406 -17c-225 0 -366 165 -366 387c0 223 141 388 366 388s366 -165 366 -388c0 -222 -141 -387 -366 -387zM407 100c148 0 223 115 223 270s-75 274 -223 274s-226 -119 -226 -274s78 -270 226 -270z" />
    <glyph glyph-name="multiply" unicode="&#xd7;" horiz-adv-x="603" 
d="M137 104l-70 69l165 166l-164 165l70 70l163 -165l164 165l71 -70l-165 -165l165 -165l-71 -70l-164 165z" />
    <glyph glyph-name="Oslash" unicode="&#xd8;" horiz-adv-x="812" 
d="M77 -42l-51 46l97 107c-55 68 -83 156 -83 259c0 223 141 388 366 388c95 0 174 -29 235 -80l88 97l52 -45l-92 -101c53 -68 83 -156 83 -259c0 -222 -141 -387 -366 -387c-96 0 -174 28 -235 79zM181 370c0 -63 11 -116 34 -159l342 375c-36 37 -86 58 -150 58
c-148 0 -226 -119 -226 -274zM407 100c148 0 223 115 223 270c0 61 -11 114 -33 159l-341 -374c37 -35 87 -55 151 -55z" />
    <glyph glyph-name="Ugrave" unicode="&#xd9;" horiz-adv-x="715" 
d="M309 785l-100 128h154l47 -128h-101zM358 -13c-185 0 -298 87 -298 264v493h138v-491c0 -101 54 -151 161 -151c101 0 158 53 158 153v489h139v-493c0 -176 -115 -264 -298 -264z" />
    <glyph glyph-name="Uacute" unicode="&#xda;" horiz-adv-x="715" 
d="M303 785l48 128h154l-100 -128h-102zM358 -13c-185 0 -298 87 -298 264v493h138v-491c0 -101 54 -151 161 -151c101 0 158 53 158 153v489h139v-493c0 -176 -115 -264 -298 -264z" />
    <glyph glyph-name="Ucircumflex" unicode="&#xdb;" horiz-adv-x="715" 
d="M358 -13c-185 0 -298 87 -298 264v493h138v-491c0 -101 54 -151 161 -151c101 0 158 53 158 153v489h139v-493c0 -176 -115 -264 -298 -264zM186 785l105 123h129l104 -123h-117l-50 59h-2l-52 -59h-117z" />
    <glyph glyph-name="Udieresis" unicode="&#xdc;" horiz-adv-x="715" 
d="M407 785v122h125v-122h-125zM182 785v122h125v-122h-125zM358 -13c-185 0 -298 87 -298 264v493h138v-491c0 -101 54 -151 161 -151c101 0 158 53 158 153v489h139v-493c0 -176 -115 -264 -298 -264z" />
    <glyph glyph-name="Yacute" unicode="&#xdd;" horiz-adv-x="692" 
d="M275 0v294l-261 450h153l105 -188c16 -31 34 -70 49 -102c8 -19 16 -38 25 -57h2c8 19 16 38 25 57c15 32 33 71 50 102l106 188h147l-262 -452v-292h-139zM289 785l48 128h154l-100 -128h-102z" />
    <glyph glyph-name="Thorn" unicode="&#xde;" horiz-adv-x="668" 
d="M70 0v744h140v-117h182c84 0 148 -25 189 -72c40 -41 63 -95 63 -162c0 -139 -90 -231 -246 -231h-188v-162h-140zM378 507h-168v-234h166c85 0 129 46 129 118c0 76 -46 116 -127 116z" />
    <glyph glyph-name="germandbls" unicode="&#xdf;" horiz-adv-x="579" 
d="M313 -10c-23 0 -45 3 -61 7v96h3c101 -15 167 35 167 140c0 89 -48 142 -141 142h-25v81h19c71 0 118 37 118 104c0 57 -36 96 -100 96c-68 0 -108 -42 -108 -111v-545h-127v550c0 124 88 205 235 205c129 0 220 -74 220 -186c0 -72 -34 -120 -114 -145v-3
c96 -24 149 -90 149 -194c0 -151 -95 -237 -235 -237z" />
    <glyph glyph-name="agrave" unicode="&#xe0;" horiz-adv-x="566" 
d="M527 0h-123c-9 12 -15 33 -18 69h-2c-35 -47 -83 -82 -168 -82c-104 0 -182 54 -182 158c0 121 92 149 219 165c88 11 132 25 132 73c0 47 -32 77 -96 77c-72 0 -106 -33 -109 -86h-120c3 91 77 174 228 174c61 0 108 -8 143 -31c51 -31 76 -81 76 -152v-281
c0 -44 8 -67 20 -75v-9zM253 74c87 0 135 60 135 120v79c-25 -16 -65 -27 -104 -35c-79 -15 -123 -31 -123 -90c0 -57 43 -74 92 -74zM243 618l-106 154h151l53 -154h-98z" />
    <glyph glyph-name="aacute" unicode="&#xe1;" horiz-adv-x="566" 
d="M527 0h-123c-9 12 -15 33 -18 69h-2c-35 -47 -83 -82 -168 -82c-104 0 -182 54 -182 158c0 121 92 149 219 165c88 11 132 25 132 73c0 47 -32 77 -96 77c-72 0 -106 -33 -109 -86h-120c3 91 77 174 228 174c61 0 108 -8 143 -31c51 -31 76 -81 76 -152v-281
c0 -44 8 -67 20 -75v-9zM253 74c87 0 135 60 135 120v79c-25 -16 -65 -27 -104 -35c-79 -15 -123 -31 -123 -90c0 -57 43 -74 92 -74zM233 618l53 154h150l-105 -154h-98z" />
    <glyph glyph-name="acircumflex" unicode="&#xe2;" horiz-adv-x="566" 
d="M527 0h-123c-9 12 -15 33 -18 69h-2c-35 -47 -83 -82 -168 -82c-104 0 -182 54 -182 158c0 121 92 149 219 165c88 11 132 25 132 73c0 47 -32 77 -96 77c-72 0 -106 -33 -109 -86h-120c3 91 77 174 228 174c61 0 108 -8 143 -31c51 -31 76 -81 76 -152v-281
c0 -44 8 -67 20 -75v-9zM253 74c87 0 135 60 135 120v79c-25 -16 -65 -27 -104 -35c-79 -15 -123 -31 -123 -90c0 -57 43 -74 92 -74zM117 621l103 136h129l102 -136h-116l-49 77h-2l-51 -77h-116z" />
    <glyph glyph-name="atilde" unicode="&#xe3;" horiz-adv-x="566" 
d="M527 0h-123c-9 12 -15 33 -18 69h-2c-35 -47 -83 -82 -168 -82c-104 0 -182 54 -182 158c0 121 92 149 219 165c88 11 132 25 132 73c0 47 -32 77 -96 77c-72 0 -106 -33 -109 -86h-120c3 91 77 174 228 174c61 0 108 -8 143 -31c51 -31 76 -81 76 -152v-281
c0 -44 8 -67 20 -75v-9zM253 74c87 0 135 60 135 120v79c-25 -16 -65 -27 -104 -35c-79 -15 -123 -31 -123 -90c0 -57 43 -74 92 -74zM356 621c-56 0 -99 40 -127 40c-17 0 -30 -15 -33 -40h-74c1 84 41 125 97 125c59 0 90 -40 126 -40c20 0 28 15 31 38h75
c-3 -76 -34 -123 -95 -123z" />
    <glyph glyph-name="adieresis" unicode="&#xe4;" horiz-adv-x="566" 
d="M527 0h-123c-9 12 -15 33 -18 69h-2c-35 -47 -83 -82 -168 -82c-104 0 -182 54 -182 158c0 121 92 149 219 165c88 11 132 25 132 73c0 47 -32 77 -96 77c-72 0 -106 -33 -109 -86h-120c3 91 77 174 228 174c61 0 108 -8 143 -31c51 -31 76 -81 76 -152v-281
c0 -44 8 -67 20 -75v-9zM253 74c87 0 135 60 135 120v79c-25 -16 -65 -27 -104 -35c-79 -15 -123 -31 -123 -90c0 -57 43 -74 92 -74zM336 621v123h122v-123h-122zM114 621v123h122v-123h-122z" />
    <glyph glyph-name="aring" unicode="&#xe5;" horiz-adv-x="566" 
d="M527 0h-123c-9 12 -15 33 -18 69h-2c-35 -47 -83 -82 -168 -82c-104 0 -182 54 -182 158c0 121 92 149 219 165c88 11 132 25 132 73c0 47 -32 77 -96 77c-72 0 -106 -33 -109 -86h-120c3 91 77 174 228 174c61 0 108 -8 143 -31c51 -31 76 -81 76 -152v-281
c0 -44 8 -67 20 -75v-9zM287 597c-61 0 -110 46 -110 106c0 58 49 106 110 106c59 0 108 -48 108 -106c0 -60 -49 -106 -108 -106zM253 74c87 0 135 60 135 120v79c-25 -16 -65 -27 -104 -35c-79 -15 -123 -31 -123 -90c0 -57 43 -74 92 -74zM287 647c31 0 53 24 53 56
s-22 57 -53 57c-33 0 -55 -25 -55 -57s22 -56 55 -56z" />
    <glyph glyph-name="ae" unicode="&#xe6;" horiz-adv-x="926" 
d="M234 -14c-123 0 -198 55 -198 159c0 121 92 149 219 165c88 11 132 25 132 72s-32 78 -96 78c-72 0 -106 -33 -110 -86h-119c3 91 77 174 228 174c87 0 148 -24 180 -76c40 47 97 76 173 76c77 0 134 -26 178 -74c53 -56 75 -140 74 -239h-385c8 -92 52 -154 143 -154
c57 0 94 27 110 70h124c-24 -99 -107 -167 -235 -167c-101 0 -168 43 -207 111c-53 -77 -116 -109 -211 -109zM254 74c88 0 136 60 136 120v78c-25 -15 -65 -26 -105 -34c-77 -15 -122 -31 -122 -90c0 -57 43 -74 91 -74zM642 456c-80 0 -120 -57 -131 -141h253
c-4 88 -50 141 -122 141z" />
    <glyph glyph-name="ccedilla" unicode="&#xe7;" horiz-adv-x="569" 
d="M265 -209c-48 0 -85 13 -112 30l18 36c23 -11 47 -16 72 -16c31 0 55 7 55 34c0 21 -15 30 -38 30c-16 0 -27 -3 -38 -7l-17 26l59 63c-143 16 -233 133 -233 279c0 160 105 282 269 282c136 0 222 -77 241 -192h-124c-12 59 -52 95 -116 95c-93 0 -141 -77 -141 -185
c0 -104 48 -183 141 -183c71 0 112 40 119 111h124c-8 -119 -89 -201 -221 -209l-45 -40v-2c50 8 108 -12 108 -71c0 -51 -49 -81 -121 -81z" />
    <glyph glyph-name="egrave" unicode="&#xe8;" horiz-adv-x="587" 
d="M303 -16c-171 0 -272 125 -272 282c0 160 107 282 265 282c79 0 139 -27 184 -75c52 -56 77 -138 76 -238h-399c9 -92 58 -154 147 -154c61 0 101 26 118 70h124c-27 -96 -111 -167 -243 -167zM296 456c-84 0 -126 -57 -137 -141h266c-5 88 -52 141 -129 141zM254 618
l-106 154h151l53 -154h-98z" />
    <glyph glyph-name="eacute" unicode="&#xe9;" horiz-adv-x="587" 
d="M303 -16c-171 0 -272 125 -272 282c0 160 107 282 265 282c79 0 139 -27 184 -75c52 -56 77 -138 76 -238h-399c9 -92 58 -154 147 -154c61 0 101 26 118 70h124c-27 -96 -111 -167 -243 -167zM296 456c-84 0 -126 -57 -137 -141h266c-5 88 -52 141 -129 141zM244 618
l53 154h150l-105 -154h-98z" />
    <glyph glyph-name="ecircumflex" unicode="&#xea;" horiz-adv-x="587" 
d="M303 -16c-171 0 -272 125 -272 282c0 160 107 282 265 282c79 0 139 -27 184 -75c52 -56 77 -138 76 -238h-399c9 -92 58 -154 147 -154c61 0 101 26 118 70h124c-27 -96 -111 -167 -243 -167zM296 456c-84 0 -126 -57 -137 -141h266c-5 88 -52 141 -129 141zM128 621
l103 136h129l102 -136h-116l-49 77h-2l-51 -77h-116z" />
    <glyph glyph-name="edieresis" unicode="&#xeb;" horiz-adv-x="587" 
d="M303 -16c-171 0 -272 125 -272 282c0 160 107 282 265 282c79 0 139 -27 184 -75c52 -56 77 -138 76 -238h-399c9 -92 58 -154 147 -154c61 0 101 26 118 70h124c-27 -96 -111 -167 -243 -167zM296 456c-84 0 -126 -57 -137 -141h266c-5 88 -52 141 -129 141zM125 621
v123h122v-123h-122zM347 621v123h122v-123h-122z" />
    <glyph glyph-name="igrave" unicode="&#xec;" horiz-adv-x="242" 
d="M58 0v534h127v-534h-127zM79 618l-106 154h151l53 -154h-98z" />
    <glyph glyph-name="iacute" unicode="&#xed;" horiz-adv-x="242" 
d="M69 618l53 154h150l-105 -154h-98zM58 0v534h127v-534h-127z" />
    <glyph glyph-name="icircumflex" unicode="&#xee;" horiz-adv-x="242" 
d="M-47 621l103 136h129l102 -136h-116l-49 77h-2l-51 -77h-116zM58 0v534h127v-534h-127z" />
    <glyph glyph-name="idieresis" unicode="&#xef;" horiz-adv-x="242" 
d="M58 0v534h127v-534h-127zM151 621v123h111v-123h-111zM-20 621v123h111v-123h-111z" />
    <glyph glyph-name="eth" unicode="&#xf0;" horiz-adv-x="607" 
d="M182 571l-23 56l115 35c-33 28 -66 52 -97 75v7h157c19 -13 39 -28 59 -45l105 32l24 -55l-81 -25c72 -80 134 -197 134 -349c0 -181 -87 -318 -271 -318c-165 0 -273 125 -273 282s95 275 244 275c51 0 102 -15 138 -58h3c-23 51 -54 93 -91 132zM303 80
c93 0 142 79 142 188c0 107 -51 183 -144 183s-141 -77 -141 -185s49 -186 143 -186z" />
    <glyph glyph-name="ntilde" unicode="&#xf1;" horiz-adv-x="589" 
d="M182 534v-78h3c35 60 90 92 166 92c116 0 184 -70 184 -186v-362h-127v341c0 64 -37 102 -102 102c-71 0 -121 -54 -121 -130v-313h-127v534h124zM368 621c-56 0 -99 40 -127 40c-17 0 -30 -15 -33 -40h-74c1 84 41 125 97 125c59 0 90 -40 126 -40c20 0 28 15 31 38h75
c-3 -76 -34 -123 -95 -123z" />
    <glyph glyph-name="ograve" unicode="&#xf2;" horiz-adv-x="606" 
d="M304 -16c-165 0 -273 125 -273 282c0 160 108 282 273 282s271 -122 271 -282c0 -157 -106 -282 -271 -282zM303 80c92 0 143 79 143 186c0 108 -51 188 -143 188c-94 0 -143 -80 -143 -188c0 -107 49 -186 143 -186zM260 618l-106 154h151l53 -154h-98z" />
    <glyph glyph-name="oacute" unicode="&#xf3;" horiz-adv-x="606" 
d="M250 618l53 154h150l-105 -154h-98zM304 -16c-165 0 -273 125 -273 282c0 160 108 282 273 282s271 -122 271 -282c0 -157 -106 -282 -271 -282zM303 80c92 0 143 79 143 186c0 108 -51 188 -143 188c-94 0 -143 -80 -143 -188c0 -107 49 -186 143 -186z" />
    <glyph glyph-name="ocircumflex" unicode="&#xf4;" horiz-adv-x="606" 
d="M134 621l103 136h129l102 -136h-116l-49 77h-2l-51 -77h-116zM304 -16c-165 0 -273 125 -273 282c0 160 108 282 273 282s271 -122 271 -282c0 -157 -106 -282 -271 -282zM303 80c92 0 143 79 143 186c0 108 -51 188 -143 188c-94 0 -143 -80 -143 -188
c0 -107 49 -186 143 -186z" />
    <glyph glyph-name="otilde" unicode="&#xf5;" horiz-adv-x="606" 
d="M304 -16c-165 0 -273 125 -273 282c0 160 108 282 273 282s271 -122 271 -282c0 -157 -106 -282 -271 -282zM303 80c92 0 143 79 143 186c0 108 -51 188 -143 188c-94 0 -143 -80 -143 -188c0 -107 49 -186 143 -186zM373 621c-56 0 -99 40 -127 40
c-17 0 -30 -15 -33 -40h-74c1 84 41 125 97 125c59 0 90 -40 126 -40c20 0 28 15 31 38h75c-3 -76 -34 -123 -95 -123z" />
    <glyph glyph-name="odieresis" unicode="&#xf6;" horiz-adv-x="606" 
d="M353 621v123h122v-123h-122zM131 621v123h122v-123h-122zM304 -16c-165 0 -273 125 -273 282c0 160 108 282 273 282s271 -122 271 -282c0 -157 -106 -282 -271 -282zM303 80c92 0 143 79 143 186c0 108 -51 188 -143 188c-94 0 -143 -80 -143 -188
c0 -107 49 -186 143 -186z" />
    <glyph glyph-name="divide" unicode="&#xf7;" horiz-adv-x="602" 
d="M232 472v130h139v-130h-139zM61 290v102h480v-102h-480zM232 80v129h139v-129h-139z" />
    <glyph glyph-name="oslash" unicode="&#xf8;" horiz-adv-x="606" 
d="M62 -44l-43 38l76 83c-41 51 -64 116 -64 189c0 160 108 282 273 282c68 0 125 -21 169 -56l70 77l43 -38l-72 -79c39 -49 61 -114 61 -186c0 -157 -106 -282 -271 -282c-67 0 -123 20 -168 53zM158 266c0 -38 6 -71 17 -100l226 248c-24 27 -57 41 -98 41
c-93 0 -145 -81 -145 -189zM303 80c93 0 144 79 144 186c0 36 -5 68 -15 96l-224 -246c24 -24 56 -36 95 -36z" />
    <glyph glyph-name="ugrave" unicode="&#xf9;" horiz-adv-x="583" 
d="M525 0h-123v76h-2c-39 -59 -85 -90 -161 -90c-117 0 -185 72 -185 188v360h127v-342c0 -64 36 -100 100 -100c72 0 118 54 118 129v313h126v-534zM246 618l-106 154h151l53 -154h-98z" />
    <glyph glyph-name="uacute" unicode="&#xfa;" horiz-adv-x="583" 
d="M525 0h-123v76h-2c-39 -59 -85 -90 -161 -90c-117 0 -185 72 -185 188v360h127v-342c0 -64 36 -100 100 -100c72 0 118 54 118 129v313h126v-534zM236 618l53 154h150l-105 -154h-98z" />
    <glyph glyph-name="ucircumflex" unicode="&#xfb;" horiz-adv-x="583" 
d="M525 0h-123v76h-2c-39 -59 -85 -90 -161 -90c-117 0 -185 72 -185 188v360h127v-342c0 -64 36 -100 100 -100c72 0 118 54 118 129v313h126v-534zM120 621l103 136h129l102 -136h-116l-49 77h-2l-51 -77h-116z" />
    <glyph glyph-name="udieresis" unicode="&#xfc;" horiz-adv-x="583" 
d="M525 0h-123v76h-2c-39 -59 -85 -90 -161 -90c-117 0 -185 72 -185 188v360h127v-342c0 -64 36 -100 100 -100c72 0 118 54 118 129v313h126v-534zM117 621v123h122v-123h-122zM339 621v123h122v-123h-122z" />
    <glyph glyph-name="yacute" unicode="&#xfd;" horiz-adv-x="539" 
d="M150 -182c-16 0 -84 3 -93 6v103h7c5 -3 40 -5 53 -5c43 0 67 16 78 59c0 10 5 59 -6 89l-184 464h135l88 -248c11 -33 23 -75 31 -108c5 -19 9 -39 14 -58h2c5 20 10 40 15 59c9 33 20 74 31 107l85 248h128l-207 -564c-46 -118 -88 -152 -177 -152zM220 618l53 154h150
l-105 -154h-98z" />
    <glyph glyph-name="thorn" unicode="&#xfe;" horiz-adv-x="610" 
d="M348 -17c-72 0 -131 30 -164 85h-3c3 -20 4 -53 4 -104v-139h-127v919h127v-176c0 -43 -1 -85 -4 -113h3c35 56 90 93 166 93c139 0 230 -111 230 -282c0 -172 -91 -283 -232 -283zM322 84c84 0 129 74 129 179c0 107 -43 182 -130 182c-96 0 -141 -81 -141 -182
c0 -100 44 -179 142 -179z" />
    <glyph glyph-name="ydieresis" unicode="&#xff;" horiz-adv-x="539" 
d="M150 -182c-16 0 -84 3 -93 6v103h7c5 -3 40 -5 53 -5c43 0 67 16 78 59c0 10 5 59 -6 89l-184 464h135l88 -248c11 -33 23 -75 31 -108c5 -19 9 -39 14 -58h2c5 20 10 40 15 59c9 33 20 74 31 107l85 248h128l-207 -564c-46 -118 -88 -152 -177 -152zM323 621v123h122
v-123h-122zM101 621v123h122v-123h-122z" />
    <glyph glyph-name="Amacron" unicode="&#x100;" horiz-adv-x="718" 
d="M14 0l270 744h148l271 -744h-148l-59 177h-282l-60 -177h-140zM307 451l-59 -172h214l-57 172c-15 44 -26 87 -34 122c-5 20 -9 39 -13 57h-2c-5 -21 -11 -42 -16 -63c-9 -36 -21 -81 -33 -116zM209 792v94h299v-94h-299z" />
    <glyph glyph-name="amacron" unicode="&#x101;" horiz-adv-x="566" 
d="M527 0h-123c-9 12 -15 33 -18 69h-2c-35 -47 -83 -82 -168 -82c-104 0 -182 54 -182 158c0 121 92 149 219 165c88 11 132 25 132 73c0 47 -32 77 -96 77c-72 0 -106 -33 -109 -86h-120c3 91 77 174 228 174c61 0 108 -8 143 -31c51 -31 76 -81 76 -152v-281
c0 -44 8 -67 20 -75v-9zM253 74c87 0 135 60 135 120v79c-25 -16 -65 -27 -104 -35c-79 -15 -123 -31 -123 -90c0 -57 43 -74 92 -74zM138 636v94h294v-94h-294z" />
    <glyph glyph-name="Abreve" unicode="&#x102;" horiz-adv-x="718" 
d="M14 0l270 744h148l271 -744h-148l-59 177h-282l-60 -177h-140zM307 451l-59 -172h214l-57 172c-15 44 -26 87 -34 122c-5 20 -9 39 -13 57h-2c-5 -21 -11 -42 -16 -63c-9 -36 -21 -81 -33 -116zM360 779c-85 0 -147 55 -151 136h79c7 -31 28 -52 71 -52c41 0 64 23 71 52
h77c-3 -76 -60 -136 -147 -136z" />
    <glyph glyph-name="abreve" unicode="&#x103;" horiz-adv-x="566" 
d="M527 0h-123c-9 12 -15 33 -18 69h-2c-35 -47 -83 -82 -168 -82c-104 0 -182 54 -182 158c0 121 92 149 219 165c88 11 132 25 132 73c0 47 -32 77 -96 77c-72 0 -106 -33 -109 -86h-120c3 91 77 174 228 174c61 0 108 -8 143 -31c51 -31 76 -81 76 -152v-281
c0 -44 8 -67 20 -75v-9zM253 74c87 0 135 60 135 120v79c-25 -16 -65 -27 -104 -35c-79 -15 -123 -31 -123 -90c0 -57 43 -74 92 -74zM288 613c-84 0 -148 54 -152 142h79c5 -37 29 -59 72 -59c41 0 67 24 72 59h77c-3 -84 -60 -142 -148 -142z" />
    <glyph glyph-name="Aogonek" unicode="&#x104;" horiz-adv-x="718" 
d="M637 -187c-79 0 -117 34 -117 86c0 51 42 85 79 101h-44l-60 177h-281l-60 -177h-140l270 744h148l270 -741c-48 -23 -74 -56 -74 -83c0 -21 12 -31 37 -31c13 0 25 2 35 5h3v-72c-13 -5 -34 -9 -66 -9zM307 451l-58 -172h213l-57 172c-15 44 -26 87 -34 122
c-5 20 -9 39 -13 57h-2c-5 -21 -11 -42 -16 -63c-9 -36 -21 -81 -33 -116z" />
    <glyph glyph-name="aogonek" unicode="&#x105;" horiz-adv-x="572" 
d="M467 -187c-79 0 -116 34 -116 86c0 49 40 83 76 103h-22c-8 11 -15 32 -18 67h-1c-35 -47 -83 -82 -168 -82c-104 0 -182 54 -182 158c0 121 92 149 219 165c88 11 132 25 132 73c0 47 -32 77 -96 77c-72 0 -106 -33 -110 -86h-119c3 91 77 174 228 174
c61 0 108 -8 143 -31c51 -31 76 -81 76 -152v-281c0 -44 8 -67 20 -75v-9c-43 -16 -71 -49 -71 -80c0 -21 13 -31 38 -31c13 0 24 2 34 5h3v-72c-13 -5 -33 -9 -66 -9zM254 74c88 0 136 60 136 120v79c-25 -16 -65 -27 -105 -35c-77 -15 -122 -31 -122 -90
c0 -57 43 -74 91 -74z" />
    <glyph glyph-name="Cacute" unicode="&#x106;" horiz-adv-x="752" 
d="M398 -16c-216 0 -358 163 -358 386c0 221 138 388 359 388c85 0 155 -22 206 -61c60 -47 96 -113 105 -192h-138c-13 80 -75 136 -174 136c-141 0 -217 -116 -217 -271c0 -157 86 -269 218 -269c111 0 172 74 180 164h139c-3 -75 -38 -148 -90 -199
c-55 -55 -131 -82 -230 -82zM330 785l48 128h154l-100 -128h-102z" />
    <glyph glyph-name="cacute" unicode="&#x107;" horiz-adv-x="569" 
d="M241 618l53 154h150l-105 -154h-98zM302 -16c-165 0 -271 125 -271 282c0 160 105 282 269 282c136 0 222 -77 241 -192h-124c-12 59 -52 95 -116 95c-93 0 -141 -77 -141 -185c0 -104 48 -183 141 -183c71 0 112 40 119 111h124c-8 -124 -99 -210 -242 -210z" />
    <glyph glyph-name="Ccircumflex" unicode="&#x108;" horiz-adv-x="752" 
d="M398 -16c-216 0 -358 163 -358 386c0 221 138 388 359 388c85 0 155 -22 206 -61c60 -47 96 -113 105 -192h-138c-13 80 -75 136 -174 136c-141 0 -217 -116 -217 -271c0 -157 86 -269 218 -269c111 0 172 74 180 164h139c-3 -75 -38 -148 -90 -199
c-55 -55 -131 -82 -230 -82zM216 785l105 123h129l104 -123h-117l-50 59h-2l-52 -59h-117z" />
    <glyph glyph-name="ccircumflex" unicode="&#x109;" horiz-adv-x="569" 
d="M125 621l103 136h129l102 -136h-116l-49 77h-2l-51 -77h-116zM302 -16c-165 0 -271 125 -271 282c0 160 105 282 269 282c136 0 222 -77 241 -192h-124c-12 59 -52 95 -116 95c-93 0 -141 -77 -141 -185c0 -104 48 -183 141 -183c71 0 112 40 119 111h124
c-8 -124 -99 -210 -242 -210z" />
    <glyph glyph-name="Cdotaccent" unicode="&#x10a;" horiz-adv-x="752" 
d="M322 785v122h130v-122h-130zM398 -16c-216 0 -358 163 -358 386c0 221 138 388 359 388c85 0 155 -22 206 -61c60 -47 96 -113 105 -192h-138c-13 80 -75 136 -174 136c-141 0 -217 -116 -217 -271c0 -157 86 -269 218 -269c111 0 172 74 180 164h139
c-3 -75 -38 -148 -90 -199c-55 -55 -131 -82 -230 -82z" />
    <glyph glyph-name="cdotaccent" unicode="&#x10b;" horiz-adv-x="569" 
d="M302 -16c-165 0 -271 125 -271 282c0 160 105 282 269 282c136 0 222 -77 241 -192h-124c-12 59 -52 95 -116 95c-93 0 -141 -77 -141 -185c0 -104 48 -183 141 -183c71 0 112 40 119 111h124c-8 -124 -99 -210 -242 -210zM229 621v123h130v-123h-130z" />
    <glyph glyph-name="Ccaron" unicode="&#x10c;" horiz-adv-x="752" 
d="M398 -16c-216 0 -358 163 -358 386c0 221 138 388 359 388c85 0 155 -22 206 -61c60 -47 96 -113 105 -192h-138c-13 80 -75 136 -174 136c-141 0 -217 -116 -217 -271c0 -157 86 -269 218 -269c111 0 172 74 180 164h139c-3 -75 -38 -148 -90 -199
c-55 -55 -131 -82 -230 -82zM556 908l-105 -123h-129l-104 123h117l50 -59h2l52 59h117z" />
    <glyph glyph-name="ccaron" unicode="&#x10d;" horiz-adv-x="569" 
d="M461 755l-103 -137h-129l-102 137h116l49 -77h2l51 77h116zM302 -16c-165 0 -271 125 -271 282c0 160 105 282 269 282c136 0 222 -77 241 -192h-124c-12 59 -52 95 -116 95c-93 0 -141 -77 -141 -185c0 -104 48 -183 141 -183c71 0 112 40 119 111h124
c-8 -124 -99 -210 -242 -210z" />
    <glyph glyph-name="Dcaron" unicode="&#x10e;" horiz-adv-x="741" 
d="M512 908l-105 -123h-129l-104 123h117l50 -59h2l52 59h117zM71 0v744h293c215 0 338 -150 338 -376c0 -221 -121 -368 -346 -368h-285zM210 118h137c147 0 213 94 213 250c0 155 -62 258 -209 258h-141v-508z" />
    <glyph glyph-name="dcaron" unicode="&#x10f;" horiz-adv-x="610" 
d="M263 -17c-141 0 -232 109 -232 283c0 171 96 282 232 282c75 0 129 -35 164 -91h2c-3 29 -4 71 -4 111v176h127v-744h-123v78h-2c-33 -63 -91 -95 -164 -95zM289 87c93 0 141 74 141 179c0 107 -48 183 -141 183c-86 0 -129 -77 -129 -182c0 -107 42 -180 129 -180z
M714 744v-73c0 -81 -45 -114 -117 -118v47c37 5 53 22 54 51h-53v93h116z" />
    <glyph glyph-name="Dcroat" unicode="&#x110;" horiz-adv-x="747" 
d="M11 320v111h66v313h294c216 0 338 -150 338 -376c0 -221 -120 -368 -347 -368h-285v320h-66zM216 118h138c147 0 213 94 213 250c0 155 -62 258 -209 258h-142v-195h189v-111h-189v-202z" />
    <glyph glyph-name="dcroat" unicode="&#x111;" horiz-adv-x="610" 
d="M617 673v-71h-65v-602h-123v78h-2c-33 -63 -91 -95 -164 -95c-141 0 -232 109 -232 283c0 171 96 282 232 282c75 0 129 -35 164 -91h2c-3 29 -4 71 -4 111v34h-144v71h144v71h127v-71h65zM289 87c93 0 141 74 141 179c0 107 -48 183 -141 183c-86 0 -129 -77 -129 -182
c0 -107 42 -180 129 -180z" />
    <glyph glyph-name="Emacron" unicode="&#x112;" horiz-adv-x="668" 
d="M70 0v744h544v-118h-406v-184h359v-111h-359v-210h415v-121h-553zM203 792v94h299v-94h-299z" />
    <glyph glyph-name="emacron" unicode="&#x113;" horiz-adv-x="587" 
d="M303 -16c-171 0 -272 125 -272 282c0 160 107 282 265 282c79 0 139 -27 184 -75c52 -56 77 -138 76 -238h-399c9 -92 58 -154 147 -154c61 0 101 26 118 70h124c-27 -96 -111 -167 -243 -167zM296 456c-84 0 -126 -57 -137 -141h266c-5 88 -52 141 -129 141zM149 636v94
h294v-94h-294z" />
    <glyph glyph-name="Ebreve" unicode="&#x114;" horiz-adv-x="668" 
d="M70 0v744h544v-118h-406v-184h359v-111h-359v-210h415v-121h-553zM354 779c-85 0 -147 55 -151 136h79c7 -31 28 -52 71 -52c41 0 64 23 71 52h77c-3 -76 -60 -136 -147 -136z" />
    <glyph glyph-name="ebreve" unicode="&#x115;" horiz-adv-x="587" 
d="M303 -16c-171 0 -272 125 -272 282c0 160 107 282 265 282c79 0 139 -27 184 -75c52 -56 77 -138 76 -238h-399c9 -92 58 -154 147 -154c61 0 101 26 118 70h124c-27 -96 -111 -167 -243 -167zM296 456c-84 0 -126 -57 -137 -141h266c-5 88 -52 141 -129 141zM298 613
c-84 0 -148 54 -152 142h79c5 -37 29 -59 72 -59c41 0 67 24 72 59h77c-3 -84 -60 -142 -148 -142z" />
    <glyph glyph-name="Edotaccent" unicode="&#x116;" horiz-adv-x="668" 
d="M70 0v744h544v-118h-406v-184h359v-111h-359v-210h415v-121h-553zM288 785v122h130v-122h-130z" />
    <glyph glyph-name="edotaccent" unicode="&#x117;" horiz-adv-x="587" 
d="M303 -16c-171 0 -272 125 -272 282c0 160 107 282 265 282c79 0 139 -27 184 -75c52 -56 77 -138 76 -238h-399c9 -92 58 -154 147 -154c61 0 101 26 118 70h124c-27 -96 -111 -167 -243 -167zM296 456c-84 0 -126 -57 -137 -141h266c-5 88 -52 141 -129 141zM232 621
v123h130v-123h-130z" />
    <glyph glyph-name="Eogonek" unicode="&#x118;" horiz-adv-x="668" 
d="M70 0v744h544v-118h-406v-184h359v-111h-359v-210h415v-121h-58c-31 -25 -55 -55 -55 -80c0 -21 12 -31 37 -31c13 0 25 2 35 5h2v-72c-13 -5 -33 -9 -65 -9c-79 0 -117 34 -117 86c0 49 37 82 74 101h-406z" />
    <glyph glyph-name="eogonek" unicode="&#x119;" horiz-adv-x="587" 
d="M377 -187c-79 0 -116 34 -116 86c0 39 27 67 56 86c-3 -1 -11 -1 -14 -1c-171 0 -272 125 -272 282c0 160 107 282 265 282c79 0 139 -27 184 -75c52 -56 77 -138 76 -238h-399c9 -92 58 -154 147 -154c61 0 101 26 118 70h124c-16 -61 -53 -95 -84 -122
c-45 -34 -94 -72 -94 -109c0 -21 13 -31 38 -31c13 0 24 2 34 5h3v-72c-13 -5 -33 -9 -66 -9zM296 456c-83 0 -126 -58 -137 -141h266c-5 88 -52 141 -129 141z" />
    <glyph glyph-name="Ecaron" unicode="&#x11a;" horiz-adv-x="668" 
d="M70 0v744h544v-118h-406v-184h359v-111h-359v-210h415v-121h-553zM522 908l-105 -123h-129l-104 123h117l50 -59h2l52 59h117z" />
    <glyph glyph-name="ecaron" unicode="&#x11b;" horiz-adv-x="587" 
d="M303 -16c-171 0 -272 125 -272 282c0 160 107 282 265 282c79 0 139 -27 184 -75c52 -56 77 -138 76 -238h-399c9 -92 58 -154 147 -154c61 0 101 26 118 70h124c-27 -96 -111 -167 -243 -167zM296 456c-84 0 -126 -57 -137 -141h266c-5 88 -52 141 -129 141zM464 755
l-103 -137h-129l-102 137h116l49 -77h2l51 77h116z" />
    <glyph glyph-name="Gcircumflex" unicode="&#x11c;" horiz-adv-x="783" 
d="M636 0l-19 102h-4c-48 -81 -128 -119 -221 -119c-105 0 -192 39 -253 106c-64 69 -98 165 -98 280c0 121 40 224 113 295c60 60 141 94 248 94c182 0 288 -97 315 -237h-140c-20 69 -74 121 -173 121c-151 0 -222 -119 -222 -273c0 -159 89 -270 222 -270
c124 0 192 85 192 180v9h-180v108h313v-396h-93zM222 785l105 123h129l104 -123h-117l-50 59h-2l-52 -59h-117z" />
    <glyph glyph-name="gcircumflex" unicode="&#x11d;" horiz-adv-x="605" 
d="M295 -186c-144 0 -231 58 -244 159h122c9 -44 49 -66 120 -66c86 0 129 39 129 117v13c0 29 1 55 2 74h-3c-33 -53 -79 -82 -151 -82c-131 0 -233 98 -233 257c0 160 98 262 226 262c74 0 127 -28 158 -83h2v69h123v-499c0 -76 -24 -130 -67 -167
c-44 -37 -108 -54 -184 -54zM293 127c96 0 134 70 134 163c0 96 -43 159 -135 159c-84 0 -129 -62 -129 -161s46 -161 130 -161zM130 621l103 136h129l102 -136h-116l-49 77h-2l-51 -77h-116z" />
    <glyph glyph-name="Gbreve" unicode="&#x11e;" horiz-adv-x="783" 
d="M636 0l-19 102h-4c-48 -81 -128 -119 -221 -119c-105 0 -192 39 -253 106c-64 69 -98 165 -98 280c0 121 40 224 113 295c60 60 141 94 248 94c182 0 288 -97 315 -237h-140c-20 69 -74 121 -173 121c-151 0 -222 -119 -222 -273c0 -159 89 -270 222 -270
c124 0 192 85 192 180v9h-180v108h313v-396h-93zM395 779c-85 0 -147 55 -151 136h79c7 -31 28 -52 71 -52c41 0 64 23 71 52h77c-3 -76 -60 -136 -147 -136z" />
    <glyph glyph-name="gbreve" unicode="&#x11f;" horiz-adv-x="605" 
d="M295 -186c-144 0 -231 58 -244 159h122c9 -44 49 -66 120 -66c86 0 129 39 129 117v13c0 29 1 55 2 74h-3c-33 -53 -79 -82 -151 -82c-131 0 -233 98 -233 257c0 160 98 262 226 262c74 0 127 -28 158 -83h2v69h123v-499c0 -76 -24 -130 -67 -167
c-44 -37 -108 -54 -184 -54zM293 127c96 0 134 70 134 163c0 96 -43 159 -135 159c-84 0 -129 -62 -129 -161s46 -161 130 -161zM300 613c-84 0 -148 54 -152 142h79c5 -37 29 -59 72 -59c41 0 67 24 72 59h77c-3 -84 -60 -142 -148 -142z" />
    <glyph glyph-name="Gdotaccent" unicode="&#x120;" horiz-adv-x="783" 
d="M636 0l-19 102h-4c-48 -81 -128 -119 -221 -119c-105 0 -192 39 -253 106c-64 69 -98 165 -98 280c0 121 40 224 113 295c60 60 141 94 248 94c182 0 288 -97 315 -237h-140c-20 69 -74 121 -173 121c-151 0 -222 -119 -222 -273c0 -159 89 -270 222 -270
c124 0 192 85 192 180v9h-180v108h313v-396h-93zM329 785v122h130v-122h-130z" />
    <glyph glyph-name="gdotaccent" unicode="&#x121;" horiz-adv-x="605" 
d="M295 -186c-144 0 -231 58 -244 159h122c9 -44 49 -66 120 -66c86 0 129 39 129 117v13c0 29 1 55 2 74h-3c-33 -53 -79 -82 -151 -82c-131 0 -233 98 -233 257c0 160 98 262 226 262c74 0 127 -28 158 -83h2v69h123v-499c0 -76 -24 -130 -67 -167
c-44 -37 -108 -54 -184 -54zM293 127c96 0 134 70 134 163c0 96 -43 159 -135 159c-84 0 -129 -62 -129 -161s46 -161 130 -161zM234 621v123h130v-123h-130z" />
    <glyph glyph-name="uni0122" unicode="&#x122;" horiz-adv-x="783" 
d="M636 0l-19 102h-4c-48 -81 -128 -119 -221 -119c-105 0 -192 39 -253 106c-64 69 -98 165 -98 280c0 121 40 224 113 295c60 60 141 94 248 94c182 0 288 -97 315 -237h-140c-20 69 -74 121 -173 121c-151 0 -222 -119 -222 -273c0 -159 89 -270 222 -270
c124 0 192 85 192 180v9h-180v108h313v-396h-93zM460 -51v-80c0 -83 -56 -119 -133 -124v49c39 7 63 23 63 55h-61v100h131z" />
    <glyph glyph-name="uni0123" unicode="&#x123;" horiz-adv-x="605" 
d="M295 -186c-144 0 -231 58 -244 159h122c9 -44 49 -66 120 -66c86 0 129 39 129 117v13c0 29 1 55 2 74h-3c-33 -53 -79 -82 -151 -82c-131 0 -233 98 -233 257c0 160 98 262 226 262c74 0 127 -28 158 -83h2v69h123v-499c0 -76 -24 -130 -67 -167
c-44 -37 -108 -54 -184 -54zM293 127c96 0 134 70 134 163c0 96 -43 159 -135 159c-84 0 -129 -62 -129 -161s46 -161 130 -161zM232 621v79c0 83 56 120 133 124v-49c-39 -7 -63 -23 -63 -55h61v-99h-131z" />
    <glyph glyph-name="Hcircumflex" unicode="&#x124;" horiz-adv-x="745" 
d="M70 0v744h138v-299h329v299h139v-744h-139v330h-329v-330h-138zM201 785l105 123h129l104 -123h-117l-50 59h-2l-52 -59h-117z" />
    <glyph glyph-name="hcircumflex" unicode="&#x125;" horiz-adv-x="589" 
d="M185 744v-200c0 -15 -1 -56 -2 -87h3c36 57 89 91 165 91c116 0 184 -70 184 -186v-362h-127v341c0 64 -37 102 -102 102c-71 0 -121 -54 -121 -130v-313h-127v744h127zM125 785l105 123h129l104 -123h-117l-50 59h-2l-52 -59h-117z" />
    <glyph glyph-name="Hbar" unicode="&#x126;" horiz-adv-x="745" 
d="M2 539v83h68v122h138v-122h329v122h139v-122h67v-83h-67v-539h-139v330h-329v-330h-138v539h-68zM208 539v-97h329v97h-329z" />
    <glyph glyph-name="hbar" unicode="&#x127;" horiz-adv-x="589" 
d="M-7 602v71h65v71h127v-71h144v-71h-144v-58c0 -15 -1 -56 -2 -87h3c36 57 89 91 165 91c116 0 184 -70 184 -186v-362h-127v341c0 64 -37 102 -102 102c-71 0 -121 -54 -121 -130v-313h-127v602h-65z" />
    <glyph glyph-name="Itilde" unicode="&#x128;" horiz-adv-x="280" 
d="M70 0v744h139v-744h-139zM210 786c-56 0 -99 40 -127 40c-16 0 -29 -16 -32 -40h-75c1 83 41 125 97 125c60 0 89 -39 125 -39c20 0 28 14 31 37h76c-3 -76 -34 -123 -95 -123z" />
    <glyph glyph-name="itilde" unicode="&#x129;" horiz-adv-x="242" 
d="M58 0v534h127v-534h-127zM191 621c-56 0 -99 40 -127 40c-17 0 -30 -15 -33 -40h-74c1 84 41 125 97 125c59 0 90 -40 126 -40c20 0 28 15 31 38h75c-3 -76 -34 -123 -95 -123z" />
    <glyph glyph-name="Imacron" unicode="&#x12a;" horiz-adv-x="280" 
d="M70 0v744h139v-744h-139zM6 792v94h268v-94h-268z" />
    <glyph glyph-name="imacron" unicode="&#x12b;" horiz-adv-x="242" 
d="M58 0v534h127v-534h-127zM4 636v94h234v-94h-234z" />
    <glyph glyph-name="Iogonek" unicode="&#x12e;" horiz-adv-x="280" 
d="M70 0v744h139v-743c-40 -21 -65 -54 -65 -81c0 -21 13 -31 38 -31c13 0 24 2 34 5h3v-72c-13 -5 -33 -9 -66 -9c-79 0 -117 34 -117 86c0 49 42 82 76 101h-42z" />
    <glyph glyph-name="iogonek" unicode="&#x12f;" horiz-adv-x="242" 
d="M58 0v534h127v-533c-39 -23 -63 -56 -63 -81c0 -21 12 -31 37 -31c13 0 25 2 35 5h2v-72c-13 -5 -33 -9 -65 -9c-77 0 -116 34 -116 86c0 51 40 82 75 101h-32zM56 621v123h130v-123h-130z" />
    <glyph glyph-name="Idotaccent" unicode="&#x130;" horiz-adv-x="280" 
d="M70 0v744h139v-744h-139zM76 785v122h130v-122h-130z" />
    <glyph glyph-name="dotlessi" unicode="&#x131;" horiz-adv-x="242" 
d="M58 0v534h127v-534h-127z" />
    <glyph glyph-name="IJ" unicode="&#x132;" horiz-adv-x="818" 
d="M70 0v744h139v-744h-139zM525 -14c-157 0 -240 84 -240 241v38h130v-34c0 -99 36 -131 105 -131c65 0 98 37 98 110v534h139v-539c0 -63 -17 -112 -50 -148c-39 -44 -99 -71 -182 -71z" />
    <glyph glyph-name="ij" unicode="&#x133;" horiz-adv-x="485" 
d="M284 -176c-25 0 -53 3 -72 7v93h5c12 0 22 -1 33 0c33 3 50 14 50 53v557h127v-562c0 -61 -15 -94 -38 -115c-27 -24 -62 -33 -105 -33zM58 0v534h127v-534h-127zM298 621v123h130v-123h-130zM56 621v123h130v-123h-130z" />
    <glyph glyph-name="Jcircumflex" unicode="&#x134;" horiz-adv-x="560" 
d="M268 -14c-157 0 -240 84 -240 241v38h130v-34c0 -99 36 -131 105 -131c65 0 98 37 98 110v534h139v-539c0 -63 -17 -112 -50 -148c-39 -44 -99 -71 -182 -71zM256 785l105 123h129l104 -123h-117l-50 59h-2l-52 -59h-117z" />
    <glyph glyph-name="jcircumflex" unicode="&#x135;" horiz-adv-x="243" 
d="M42 -176c-25 0 -53 3 -72 7v93h5c12 0 22 -1 33 0c33 3 50 14 50 53v557h127v-562c0 -61 -15 -94 -38 -115c-27 -24 -62 -33 -105 -33zM-48 621l103 136h129l102 -136h-116l-49 77h-2l-51 -77h-116z" />
    <glyph glyph-name="uni0136" unicode="&#x136;" horiz-adv-x="713" 
d="M70 0v744h138v-172c0 -60 -2 -119 -5 -158l316 330h168l-292 -298l313 -446h-162l-250 357l-88 -89v-268h-138zM425 -51v-80c0 -83 -56 -119 -133 -124v49c39 7 63 23 63 55h-61v100h131z" />
    <glyph glyph-name="uni0137" unicode="&#x137;" horiz-adv-x="568" 
d="M407 0l-160 256l-63 -63v-193h-126v744h126v-288c0 -51 -3 -100 -4 -131l201 209h151l-196 -195l219 -339h-148zM350 -51v-80c0 -83 -56 -119 -133 -124v49c39 7 63 23 63 55h-61v100h131z" />
    <glyph glyph-name="Lacute" unicode="&#x139;" horiz-adv-x="600" 
d="M81 785l48 128h154l-100 -128h-102zM70 0v744h138v-623h362v-121h-500z" />
    <glyph glyph-name="lacute" unicode="&#x13a;" horiz-adv-x="247" 
d="M67 785l48 128h154l-100 -128h-102zM60 0v744h128v-744h-128z" />
    <glyph glyph-name="uni013B" unicode="&#x13b;" horiz-adv-x="600" 
d="M388 -51v-80c0 -83 -56 -119 -133 -124v49c39 7 63 23 63 55h-61v100h131zM70 0v744h138v-623h362v-121h-500z" />
    <glyph glyph-name="uni013C" unicode="&#x13c;" horiz-adv-x="247" 
d="M191 -51v-80c0 -83 -56 -119 -133 -124v49c39 7 63 23 63 55h-61v100h131zM60 0v744h128v-744h-128z" />
    <glyph glyph-name="Lcaron" unicode="&#x13d;" horiz-adv-x="600" 
d="M70 0v744h138v-623h362v-121h-500zM466 744v-91c0 -87 -50 -122 -122 -126v47c37 5 53 24 54 59h-53v111h121z" />
    <glyph glyph-name="lcaron" unicode="&#x13e;" horiz-adv-x="247" 
d="M350 744v-73c0 -81 -45 -114 -117 -118v47c37 5 53 22 54 51h-53v93h116zM60 0v744h128v-744h-128z" />
    <glyph glyph-name="Ldot" unicode="&#x13f;" horiz-adv-x="600" 
d="M70 0v744h138v-623h362v-121h-500zM383 295v129h129v-129h-129z" />
    <glyph glyph-name="ldot" unicode="&#x140;" horiz-adv-x="377" 
d="M60 0v744h128v-744h-128zM248 295v129h129v-129h-129z" />
    <glyph glyph-name="Lslash" unicode="&#x141;" horiz-adv-x="603" 
d="M5 201v101l68 36v406h138v-333l230 122v-101l-230 -122v-189h363v-121h-501v237z" />
    <glyph glyph-name="lslash" unicode="&#x142;" horiz-adv-x="293" 
d="M9 219v101l73 55v369h128v-272l82 62v-101l-82 -62v-371h-128v274z" />
    <glyph glyph-name="Nacute" unicode="&#x143;" horiz-adv-x="747" 
d="M324 785l48 128h154l-100 -128h-102zM70 0v744h142l247 -390c20 -33 42 -76 61 -111c11 -21 21 -41 32 -62h3c-1 23 -3 45 -4 67c-3 39 -4 86 -4 123v373h131v-744h-142l-246 388c-21 33 -43 77 -62 112c-11 21 -21 41 -32 62h-2c1 -23 2 -45 3 -67c3 -39 4 -86 4 -123
v-372h-131z" />
    <glyph glyph-name="nacute" unicode="&#x144;" horiz-adv-x="589" 
d="M182 534v-78h3c35 60 90 92 166 92c116 0 184 -70 184 -186v-362h-127v341c0 64 -37 102 -102 102c-71 0 -121 -54 -121 -130v-313h-127v534h124zM246 618l53 154h150l-105 -154h-98z" />
    <glyph glyph-name="uni0145" unicode="&#x145;" horiz-adv-x="747" 
d="M439 -51v-80c0 -83 -56 -119 -133 -124v49c39 7 63 23 63 55h-61v100h131zM70 0v744h142l247 -390c20 -33 42 -76 61 -111c11 -21 21 -41 32 -62h3c-1 23 -3 45 -4 67c-3 39 -4 86 -4 123v373h131v-744h-142l-246 388c-21 33 -43 77 -62 112c-11 21 -21 41 -32 62h-2
c1 -23 2 -45 3 -67c3 -39 4 -86 4 -123v-372h-131z" />
    <glyph glyph-name="uni0146" unicode="&#x146;" horiz-adv-x="589" 
d="M182 534v-78h3c35 60 90 92 166 92c116 0 184 -70 184 -186v-362h-127v341c0 64 -37 102 -102 102c-71 0 -121 -54 -121 -130v-313h-127v534h124zM365 -51v-80c0 -83 -56 -119 -133 -124v49c39 7 63 23 63 55h-61v100h131z" />
    <glyph glyph-name="Ncaron" unicode="&#x147;" horiz-adv-x="747" 
d="M551 908l-105 -123h-129l-104 123h117l50 -59h2l52 59h117zM70 0v744h142l247 -390c20 -33 42 -76 61 -111c11 -21 21 -41 32 -62h3c-1 23 -3 45 -4 67c-3 39 -4 86 -4 123v373h131v-744h-142l-246 388c-21 33 -43 77 -62 112c-11 21 -21 41 -32 62h-2c1 -23 2 -45 3 -67
c3 -39 4 -86 4 -123v-372h-131z" />
    <glyph glyph-name="ncaron" unicode="&#x148;" horiz-adv-x="589" 
d="M182 534v-78h3c35 60 90 92 166 92c116 0 184 -70 184 -186v-362h-127v341c0 64 -37 102 -102 102c-71 0 -121 -54 -121 -130v-313h-127v534h124zM466 755l-103 -137h-129l-102 137h116l49 -77h2l51 77h116z" />
    <glyph glyph-name="napostrophe" unicode="&#x149;" horiz-adv-x="589" 
d="M182 534v-78h3c35 60 90 92 166 92c116 0 184 -70 184 -186v-362h-127v341c0 64 -37 102 -102 102c-71 0 -121 -54 -121 -130v-313h-127v534h124zM81 744v-73c0 -81 -45 -114 -117 -118v47c37 5 53 22 54 51h-53v93h116z" />
    <glyph glyph-name="Omacron" unicode="&#x14c;" horiz-adv-x="812" 
d="M256 792v94h299v-94h-299zM406 -17c-225 0 -366 165 -366 387c0 223 141 388 366 388s366 -165 366 -388c0 -222 -141 -387 -366 -387zM407 100c148 0 223 115 223 270s-75 274 -223 274s-226 -119 -226 -274s78 -270 226 -270z" />
    <glyph glyph-name="omacron" unicode="&#x14d;" horiz-adv-x="606" 
d="M155 636v94h294v-94h-294zM304 -16c-165 0 -273 125 -273 282c0 160 108 282 273 282s271 -122 271 -282c0 -157 -106 -282 -271 -282zM303 80c92 0 143 79 143 186c0 108 -51 188 -143 188c-94 0 -143 -80 -143 -188c0 -107 49 -186 143 -186z" />
    <glyph glyph-name="Obreve" unicode="&#x14e;" horiz-adv-x="812" 
d="M407 779c-85 0 -147 55 -151 136h79c7 -31 28 -52 71 -52c41 0 64 23 71 52h77c-3 -76 -60 -136 -147 -136zM406 -17c-225 0 -366 165 -366 387c0 223 141 388 366 388s366 -165 366 -388c0 -222 -141 -387 -366 -387zM407 100c148 0 223 115 223 270s-75 274 -223 274
s-226 -119 -226 -274s78 -270 226 -270z" />
    <glyph glyph-name="obreve" unicode="&#x14f;" horiz-adv-x="606" 
d="M304 -16c-165 0 -273 125 -273 282c0 160 108 282 273 282s271 -122 271 -282c0 -157 -106 -282 -271 -282zM303 80c92 0 143 79 143 186c0 108 -51 188 -143 188c-94 0 -143 -80 -143 -188c0 -107 49 -186 143 -186zM304 613c-84 0 -148 54 -152 142h79
c5 -37 29 -59 72 -59c41 0 67 24 72 59h77c-3 -84 -60 -142 -148 -142z" />
    <glyph glyph-name="Ohungarumlaut" unicode="&#x150;" horiz-adv-x="812" 
d="M406 -17c-225 0 -366 165 -366 387c0 223 141 388 366 388s366 -165 366 -388c0 -222 -141 -387 -366 -387zM407 100c148 0 223 115 223 270s-75 274 -223 274s-226 -119 -226 -274s78 -270 226 -270zM445 785l33 128h128l-75 -128h-86zM271 785l34 128h129l-75 -128h-88
z" />
    <glyph glyph-name="ohungarumlaut" unicode="&#x151;" horiz-adv-x="606" 
d="M343 618l41 154h125l-82 -154h-84zM172 618l42 154h126l-83 -154h-85zM304 -16c-165 0 -273 125 -273 282c0 160 108 282 273 282s271 -122 271 -282c0 -157 -106 -282 -271 -282zM303 80c92 0 143 79 143 186c0 108 -51 188 -143 188c-94 0 -143 -80 -143 -188
c0 -107 49 -186 143 -186z" />
    <glyph glyph-name="Racute" unicode="&#x154;" horiz-adv-x="708" 
d="M70 0v744h351c139 0 239 -79 239 -209c0 -89 -40 -153 -137 -184v-3c79 -24 108 -69 116 -161c12 -109 13 -169 33 -180v-7h-140c-19 12 -19 70 -27 170c-8 88 -49 126 -138 126h-159v-296h-138zM208 631v-229h180c88 0 133 44 133 113c0 75 -39 116 -128 116h-185z
M290 785l48 128h154l-100 -128h-102z" />
    <glyph glyph-name="racute" unicode="&#x155;" horiz-adv-x="396" 
d="M181 534v-96h3c34 69 85 104 153 104c15 0 27 -2 34 -5v-114h-4c-11 3 -22 4 -35 4c-84 1 -147 -56 -147 -159v-268h-127v534h123zM169 618l53 154h150l-105 -154h-98z" />
    <glyph glyph-name="uni0156" unicode="&#x156;" horiz-adv-x="708" 
d="M70 0v744h351c139 0 239 -79 239 -209c0 -89 -40 -153 -137 -184v-3c79 -24 108 -69 116 -161c12 -109 13 -169 33 -180v-7h-140c-19 12 -19 70 -27 170c-8 88 -49 126 -138 126h-159v-296h-138zM208 631v-229h180c88 0 133 44 133 113c0 75 -39 116 -128 116h-185z
M425 -51v-80c0 -83 -56 -119 -133 -124v49c39 7 63 23 63 55h-61v100h131z" />
    <glyph glyph-name="uni0157" unicode="&#x157;" horiz-adv-x="396" 
d="M181 534v-96h3c34 69 85 104 153 104c15 0 27 -2 34 -5v-114h-4c-11 3 -22 4 -35 4c-84 1 -147 -56 -147 -159v-268h-127v534h123zM187 -51v-80c0 -83 -56 -119 -133 -124v49c39 7 63 23 63 55h-61v100h131z" />
    <glyph glyph-name="Rcaron" unicode="&#x158;" horiz-adv-x="708" 
d="M70 0v744h351c139 0 239 -79 239 -209c0 -89 -40 -153 -137 -184v-3c79 -24 108 -69 116 -161c12 -109 13 -169 33 -180v-7h-140c-19 12 -19 70 -27 170c-8 88 -49 126 -138 126h-159v-296h-138zM208 631v-229h180c88 0 133 44 133 113c0 75 -39 116 -128 116h-185z
M517 908l-105 -123h-129l-104 123h117l50 -59h2l52 59h117z" />
    <glyph glyph-name="rcaron" unicode="&#x159;" horiz-adv-x="396" 
d="M181 534v-96h3c34 69 85 104 153 104c15 0 27 -2 34 -5v-114h-4c-11 3 -22 4 -35 4c-84 1 -147 -56 -147 -159v-268h-127v534h123zM393 755l-103 -137h-129l-102 137h116l49 -77h2l51 77h116z" />
    <glyph glyph-name="Sacute" unicode="&#x15a;" horiz-adv-x="682" 
d="M353 -17c-204 0 -320 103 -325 255h139c10 -96 72 -144 187 -144c81 0 148 34 148 109c0 80 -75 98 -192 125c-139 32 -255 67 -255 217c0 140 116 212 275 212c175 0 272 -83 287 -220h-135c-11 73 -66 114 -154 114c-84 0 -138 -34 -138 -94c0 -68 72 -87 187 -111
c138 -29 265 -71 265 -232c0 -148 -124 -231 -289 -231zM276 785l48 128h154l-100 -128h-102z" />
    <glyph glyph-name="sacute" unicode="&#x15b;" horiz-adv-x="531" 
d="M207 618l53 154h150l-105 -154h-98zM272 -17c-153 0 -240 73 -248 181h122c11 -64 59 -91 127 -91c71 0 103 30 103 73c0 53 -55 63 -138 79c-100 19 -195 45 -195 164c0 101 86 159 211 159c143 0 213 -64 226 -157h-121c-9 47 -45 71 -106 71c-60 0 -90 -27 -90 -64
c0 -48 56 -55 136 -71c101 -19 201 -42 201 -173c0 -112 -96 -171 -228 -171z" />
    <glyph glyph-name="Scircumflex" unicode="&#x15c;" horiz-adv-x="682" 
d="M353 -17c-204 0 -320 103 -325 255h139c10 -96 72 -144 187 -144c81 0 148 34 148 109c0 80 -75 98 -192 125c-139 32 -255 67 -255 217c0 140 116 212 275 212c175 0 272 -83 287 -220h-135c-11 73 -66 114 -154 114c-84 0 -138 -34 -138 -94c0 -68 72 -87 187 -111
c138 -29 265 -71 265 -232c0 -148 -124 -231 -289 -231zM161 785l105 123h129l104 -123h-117l-50 59h-2l-52 -59h-117z" />
    <glyph glyph-name="scircumflex" unicode="&#x15d;" horiz-adv-x="531" 
d="M92 621l103 136h129l102 -136h-116l-49 77h-2l-51 -77h-116zM272 -17c-153 0 -240 73 -248 181h122c11 -64 59 -91 127 -91c71 0 103 30 103 73c0 53 -55 63 -138 79c-100 19 -195 45 -195 164c0 101 86 159 211 159c143 0 213 -64 226 -157h-121c-9 47 -45 71 -106 71
c-60 0 -90 -27 -90 -64c0 -48 56 -55 136 -71c101 -19 201 -42 201 -173c0 -112 -96 -171 -228 -171z" />
    <glyph glyph-name="Scedilla" unicode="&#x15e;" horiz-adv-x="682" 
d="M306 -209c-48 0 -85 13 -112 30l18 36c23 -11 47 -16 72 -16c31 0 55 7 55 34c0 21 -15 30 -38 30c-16 0 -27 -3 -38 -7l-17 26l58 61c-173 16 -271 113 -276 253h139c10 -96 72 -144 187 -144c81 0 148 34 148 109c0 80 -75 98 -192 125c-139 32 -255 67 -255 217
c0 140 116 212 275 212c175 0 272 -83 287 -220h-135c-11 73 -66 114 -154 114c-84 0 -138 -34 -138 -94c0 -68 72 -87 187 -111c138 -29 265 -71 265 -232c0 -144 -119 -228 -280 -231l-43 -38v-2c50 8 108 -12 108 -71c0 -51 -49 -81 -121 -81z" />
    <glyph glyph-name="scedilla" unicode="&#x15f;" horiz-adv-x="531" 
d="M232 -209c-48 0 -85 13 -112 30l18 36c23 -11 47 -16 72 -16c31 0 55 7 55 34c0 21 -15 30 -38 30c-16 0 -27 -3 -38 -7l-17 26l57 61c-125 13 -198 80 -205 179h122c11 -64 59 -91 127 -91c71 0 103 30 103 73c0 53 -55 63 -138 79c-100 19 -195 45 -195 164
c0 101 86 159 211 159c143 0 213 -64 226 -157h-121c-9 47 -45 71 -106 71c-60 0 -90 -27 -90 -64c0 -48 56 -55 136 -71c101 -19 201 -42 201 -173c0 -108 -87 -165 -211 -170l-44 -39v-2c50 8 108 -12 108 -71c0 -51 -49 -81 -121 -81z" />
    <glyph glyph-name="uni0162" unicode="&#x162;" horiz-adv-x="661" 
d="M29 625v119h604v-119h-233v-625h-139v625h-232zM397 -51v-80c0 -83 -56 -119 -133 -124v49c39 7 63 23 63 55h-61v100h131z" />
    <glyph glyph-name="uni0163" unicode="&#x163;" horiz-adv-x="371" 
d="M26 447v87h82v170h125v-170h107v-87h-107v-299c0 -39 21 -50 57 -50c13 0 30 1 41 4h6v-99c-21 -4 -49 -8 -84 -8c-86 0 -145 32 -145 125v327h-82zM279 -51v-80c0 -83 -56 -119 -133 -124v49c39 7 63 23 63 55h-61v100h131z" />
    <glyph glyph-name="uni021A" unicode="&#x21a;" horiz-adv-x="661" 
d="M29 625v119h604v-119h-233v-625h-139v625h-232zM397 -51v-80c0 -83 -56 -119 -133 -124v49c39 7 63 23 63 55h-61v100h131z" />
    <glyph glyph-name="uni021B" unicode="&#x21b;" horiz-adv-x="371" 
d="M26 447v87h82v170h125v-170h107v-87h-107v-299c0 -39 21 -50 57 -50c13 0 30 1 41 4h6v-99c-21 -4 -49 -8 -84 -8c-86 0 -145 32 -145 125v327h-82zM279 -51v-80c0 -83 -56 -119 -133 -124v49c39 7 63 23 63 55h-61v100h131z" />
    <glyph glyph-name="Tcaron" unicode="&#x164;" horiz-adv-x="661" 
d="M29 625v119h604v-119h-233v-625h-139v625h-232zM500 908l-105 -123h-129l-104 123h117l50 -59h2l52 59h117z" />
    <glyph glyph-name="tcaron" unicode="&#x165;" horiz-adv-x="371" 
d="M26 447v87h82v170h125v-170h107v-87h-107v-299c0 -39 21 -50 57 -50c13 0 30 1 41 4h6v-99c-21 -4 -49 -8 -84 -8c-86 0 -145 32 -145 125v327h-82zM404 744v-73c0 -81 -45 -114 -117 -118v47c37 5 53 22 54 51h-53v93h116z" />
    <glyph glyph-name="Tbar" unicode="&#x166;" horiz-adv-x="661" 
d="M29 625v119h604v-119h-233v-196h156v-91h-156v-338h-139v338h-156v91h156v196h-232z" />
    <glyph glyph-name="tbar" unicode="&#x167;" horiz-adv-x="371" 
d="M26 447v87h82v170h125v-170h107v-87h-107v-88h107v-80h-107v-131c0 -39 21 -50 57 -50c13 0 30 1 41 4h6v-99c-21 -4 -49 -8 -84 -8c-86 0 -145 32 -145 125v159h-82v80h82v88h-82z" />
    <glyph glyph-name="Utilde" unicode="&#x168;" horiz-adv-x="715" 
d="M427 786c-56 0 -99 40 -127 40c-16 0 -29 -16 -32 -40h-75c1 83 41 125 97 125c60 0 89 -39 125 -39c20 0 28 14 31 37h76c-3 -76 -34 -123 -95 -123zM358 -13c-185 0 -298 87 -298 264v493h138v-491c0 -101 54 -151 161 -151c101 0 158 53 158 153v489h139v-493
c0 -176 -115 -264 -298 -264z" />
    <glyph glyph-name="utilde" unicode="&#x169;" horiz-adv-x="583" 
d="M525 0h-123v76h-2c-39 -59 -85 -90 -161 -90c-117 0 -185 72 -185 188v360h127v-342c0 -64 36 -100 100 -100c72 0 118 54 118 129v313h126v-534zM358 621c-56 0 -99 40 -127 40c-17 0 -30 -15 -33 -40h-74c1 84 41 125 97 125c59 0 90 -40 126 -40c20 0 28 15 31 38h75
c-3 -76 -34 -123 -95 -123z" />
    <glyph glyph-name="Umacron" unicode="&#x16a;" horiz-adv-x="715" 
d="M208 792v94h299v-94h-299zM358 -13c-185 0 -298 87 -298 264v493h138v-491c0 -101 54 -151 161 -151c101 0 158 53 158 153v489h139v-493c0 -176 -115 -264 -298 -264z" />
    <glyph glyph-name="umacron" unicode="&#x16b;" horiz-adv-x="583" 
d="M525 0h-123v76h-2c-39 -59 -85 -90 -161 -90c-117 0 -185 72 -185 188v360h127v-342c0 -64 36 -100 100 -100c72 0 118 54 118 129v313h126v-534zM141 636v94h294v-94h-294z" />
    <glyph glyph-name="Ubreve" unicode="&#x16c;" horiz-adv-x="715" 
d="M359 779c-85 0 -147 55 -151 136h79c7 -31 28 -52 71 -52c41 0 64 23 71 52h77c-3 -76 -60 -136 -147 -136zM358 -13c-185 0 -298 87 -298 264v493h138v-491c0 -101 54 -151 161 -151c101 0 158 53 158 153v489h139v-493c0 -176 -115 -264 -298 -264z" />
    <glyph glyph-name="ubreve" unicode="&#x16d;" horiz-adv-x="583" 
d="M525 0h-123v76h-2c-39 -59 -85 -90 -161 -90c-117 0 -185 72 -185 188v360h127v-342c0 -64 36 -100 100 -100c72 0 118 54 118 129v313h126v-534zM290 613c-84 0 -148 54 -152 142h79c5 -37 29 -59 72 -59c41 0 67 24 72 59h77c-3 -84 -60 -142 -148 -142z" />
    <glyph glyph-name="Uring" unicode="&#x16e;" horiz-adv-x="715" 
d="M358 -13c-185 0 -298 87 -298 264v493h138v-491c0 -101 54 -151 161 -151c101 0 158 53 158 153v489h139v-493c0 -176 -115 -264 -298 -264zM358 743c-61 0 -110 46 -110 106c0 58 49 105 110 105c59 0 108 -47 108 -105c0 -60 -49 -106 -108 -106zM358 793
c31 0 53 24 53 56c0 31 -22 56 -53 56c-33 0 -55 -25 -55 -56c0 -32 22 -56 55 -56z" />
    <glyph glyph-name="uring" unicode="&#x16f;" horiz-adv-x="583" 
d="M525 0h-123v76h-2c-39 -59 -85 -90 -161 -90c-117 0 -185 72 -185 188v360h127v-342c0 -64 36 -100 100 -100c72 0 118 54 118 129v313h126v-534zM290 597c-61 0 -110 46 -110 106c0 58 49 106 110 106c59 0 108 -48 108 -106c0 -60 -49 -106 -108 -106zM290 647
c31 0 53 24 53 56s-22 57 -53 57c-33 0 -55 -25 -55 -57s22 -56 55 -56z" />
    <glyph glyph-name="Uhungarumlaut" unicode="&#x170;" horiz-adv-x="715" 
d="M358 -13c-185 0 -298 87 -298 264v493h138v-491c0 -101 54 -151 161 -151c101 0 158 53 158 153v489h139v-493c0 -176 -115 -264 -298 -264zM397 785l33 128h128l-75 -128h-86zM223 785l34 128h129l-75 -128h-88z" />
    <glyph glyph-name="uhungarumlaut" unicode="&#x171;" horiz-adv-x="583" 
d="M525 0h-123v76h-2c-39 -59 -85 -90 -161 -90c-117 0 -185 72 -185 188v360h127v-342c0 -64 36 -100 100 -100c72 0 118 54 118 129v313h126v-534zM158 618l42 154h126l-83 -154h-85zM329 618l41 154h125l-82 -154h-84z" />
    <glyph glyph-name="Uogonek" unicode="&#x172;" horiz-adv-x="715" 
d="M402 -187c-80 0 -117 34 -117 86c0 41 26 70 57 89c-176 5 -282 91 -282 263v493h138v-491c0 -101 54 -151 161 -151c101 0 158 53 158 153v489h139v-493c0 -129 -60 -209 -164 -244c-50 -18 -99 -45 -99 -87c0 -21 12 -31 37 -31c13 0 25 2 35 5h2v-72
c-13 -5 -33 -9 -65 -9z" />
    <glyph glyph-name="uogonek" unicode="&#x173;" horiz-adv-x="583" 
d="M468 -187c-76 0 -115 34 -115 86c0 51 39 82 75 101h-26v76h-2c-39 -59 -85 -90 -161 -90c-117 0 -185 72 -185 188v360h127v-342c0 -64 36 -100 100 -100c72 0 118 54 118 129v313h126v-533c-41 -23 -66 -54 -66 -81c0 -21 13 -31 38 -31c13 0 24 2 34 5h3v-72
c-13 -5 -33 -9 -66 -9z" />
    <glyph glyph-name="Wcircumflex" unicode="&#x174;" horiz-adv-x="983" 
d="M211 0l-198 744h142l88 -360c11 -47 21 -107 28 -156c4 -29 8 -58 11 -87h2l15 90c9 51 19 112 30 157l91 356h136l90 -355c11 -45 21 -107 29 -158c5 -30 9 -60 14 -90h2c4 29 8 59 13 88c8 51 18 109 30 156l88 359h142l-206 -744h-135l-95 389c-11 39 -20 94 -27 141
c-4 27 -8 54 -12 82h-2c-4 -28 -8 -55 -12 -82c-7 -47 -17 -102 -26 -141l-100 -389h-138zM317 785l105 123h129l104 -123h-117l-50 59h-2l-52 -59h-117z" />
    <glyph glyph-name="wcircumflex" unicode="&#x175;" horiz-adv-x="803" 
d="M232 621l103 136h129l102 -136h-116l-49 77h-2l-51 -77h-116zM175 0l-167 534h132l69 -249c8 -31 16 -72 23 -104c3 -19 7 -38 10 -57h2c3 19 7 37 11 56c7 32 15 73 24 105l66 249h112l68 -249c8 -31 16 -71 23 -104c3 -19 7 -39 11 -58h2c3 19 7 38 10 57
c7 32 13 72 24 105l71 249h128l-170 -534h-122l-67 254c-7 28 -15 67 -22 99c-4 19 -8 38 -11 58h-2c-4 -20 -8 -39 -12 -58c-7 -32 -15 -71 -22 -99l-69 -254h-122z" />
    <glyph glyph-name="Ycircumflex" unicode="&#x176;" horiz-adv-x="692" 
d="M275 0v294l-261 450h153l105 -188c16 -31 34 -70 49 -102c8 -19 16 -38 25 -57h2c8 19 16 38 25 57c15 32 33 71 50 102l106 188h147l-262 -452v-292h-139zM175 785l105 123h129l104 -123h-117l-50 59h-2l-52 -59h-117z" />
    <glyph glyph-name="ycircumflex" unicode="&#x177;" horiz-adv-x="539" 
d="M150 -182c-16 0 -84 3 -93 6v103h7c5 -3 40 -5 53 -5c43 0 67 16 78 59c0 10 5 59 -6 89l-184 464h135l88 -248c11 -33 23 -75 31 -108c5 -19 9 -39 14 -58h2c5 20 10 40 15 59c9 33 20 74 31 107l85 248h128l-207 -564c-46 -118 -88 -152 -177 -152zM104 621l103 136
h129l102 -136h-116l-49 77h-2l-51 -77h-116z" />
    <glyph glyph-name="Zacute" unicode="&#x179;" horiz-adv-x="679" 
d="M37 0v118l316 394c19 24 46 53 69 76c13 13 26 27 39 40v3c-17 -1 -35 -1 -52 -2c-31 -1 -67 -2 -94 -2h-251v117h557v-109l-308 -389c-23 -27 -51 -59 -75 -84c-14 -15 -28 -30 -43 -44v-3c19 1 37 1 55 2c31 1 69 3 98 3h288v-120h-599zM283 785l48 128h154l-100 -128
h-102z" />
    <glyph glyph-name="zacute" unicode="&#x17a;" horiz-adv-x="526" 
d="M219 618l53 154h150l-105 -154h-98zM40 0v96l213 261c13 15 33 35 49 51c9 9 19 18 28 27v3l-39 -3c-23 -3 -49 -3 -69 -3h-162v102h419v-87l-212 -260c-15 -17 -37 -38 -54 -55c-11 -10 -21 -20 -31 -30v-3c13 1 27 1 41 2c23 1 52 3 75 3h194v-104h-452z" />
    <glyph glyph-name="Zdotaccent" unicode="&#x17b;" horiz-adv-x="679" 
d="M276 785v122h130v-122h-130zM37 0v118l316 394c19 24 46 53 69 76c13 13 26 27 39 40v3c-17 -1 -35 -1 -52 -2c-31 -1 -67 -2 -94 -2h-251v117h557v-109l-308 -389c-23 -27 -51 -59 -75 -84c-14 -15 -28 -30 -43 -44v-3c19 1 37 1 55 2c31 1 69 3 98 3h288v-120h-599z
" />
    <glyph glyph-name="zdotaccent" unicode="&#x17c;" horiz-adv-x="526" 
d="M40 0v96l213 261c13 15 33 35 49 51c9 9 19 18 28 27v3l-39 -3c-23 -3 -49 -3 -69 -3h-162v102h419v-87l-212 -260c-15 -17 -37 -38 -54 -55c-11 -10 -21 -20 -31 -30v-3c13 1 27 1 41 2c23 1 52 3 75 3h194v-104h-452zM207 621v123h130v-123h-130z" />
    <glyph glyph-name="Zcaron" unicode="&#x17d;" horiz-adv-x="679" 
d="M510 908l-105 -123h-129l-104 123h117l50 -59h2l52 59h117zM37 0v118l316 394c19 24 46 53 69 76c13 13 26 27 39 40v3c-17 -1 -35 -1 -52 -2c-31 -1 -67 -2 -94 -2h-251v117h557v-109l-308 -389c-23 -27 -51 -59 -75 -84c-14 -15 -28 -30 -43 -44v-3c19 1 37 1 55 2
c31 1 69 3 98 3h288v-120h-599z" />
    <glyph glyph-name="zcaron" unicode="&#x17e;" horiz-adv-x="526" 
d="M439 755l-103 -137h-129l-102 137h116l49 -77h2l51 77h116zM40 0v96l213 261c13 15 33 35 49 51c9 9 19 18 28 27v3l-39 -3c-23 -3 -49 -3 -69 -3h-162v102h419v-87l-212 -260c-15 -17 -37 -38 -54 -55c-11 -10 -21 -20 -31 -30v-3c13 1 27 1 41 2c23 1 52 3 75 3h194
v-104h-452z" />
    <glyph glyph-name="uni0218" unicode="&#x218;" horiz-adv-x="682" 
d="M401 -51v-80c0 -83 -56 -119 -133 -124v49c39 7 63 23 63 55h-61v100h131zM353 -17c-204 0 -320 103 -325 255h139c10 -96 72 -144 187 -144c81 0 148 34 148 109c0 80 -75 98 -192 125c-139 32 -255 67 -255 217c0 140 116 212 275 212c175 0 272 -83 287 -220h-135
c-11 73 -66 114 -154 114c-84 0 -138 -34 -138 -94c0 -68 72 -87 187 -111c138 -29 265 -71 265 -232c0 -148 -124 -231 -289 -231z" />
    <glyph glyph-name="uni0219" unicode="&#x219;" horiz-adv-x="531" 
d="M327 -51v-80c0 -83 -56 -119 -133 -124v49c39 7 63 23 63 55h-61v100h131zM272 -17c-153 0 -240 73 -248 181h122c11 -64 59 -91 127 -91c71 0 103 30 103 73c0 53 -55 63 -138 79c-100 19 -195 45 -195 164c0 101 86 159 211 159c143 0 213 -64 226 -157h-121
c-9 47 -45 71 -106 71c-60 0 -90 -27 -90 -64c0 -48 56 -55 136 -71c101 -19 201 -42 201 -173c0 -112 -96 -171 -228 -171z" />
    <glyph glyph-name="caron" unicode="&#x2c7;" 
d="M417 755l-103 -137h-129l-102 137h116l49 -77h2l51 77h116z" />
    <glyph glyph-name="uni02C9" unicode="&#x2c9;" 
d="M104 636v94h294v-94h-294z" />
    <glyph glyph-name="breve" unicode="&#x2d8;" 
d="M271 613c-84 0 -148 54 -152 142h79c5 -37 29 -59 72 -59c41 0 67 24 72 59h77c-3 -84 -60 -142 -148 -142z" />
    <glyph glyph-name="dotaccent" unicode="&#x2d9;" 
d="M185 621v123h130v-123h-130z" />
    <glyph glyph-name="ring" unicode="&#x2da;" 
d="M251 597c-61 0 -110 46 -110 106c0 58 49 106 110 106c59 0 108 -48 108 -106c0 -60 -49 -106 -108 -106zM251 647c31 0 53 24 53 56s-22 57 -53 57c-33 0 -55 -25 -55 -57s22 -56 55 -56z" />
    <glyph glyph-name="ogonek" unicode="&#x2db;" 
d="M232 -187c-79 0 -117 34 -117 86c0 50 44 85 80 101h84c-32 -25 -56 -55 -56 -80c0 -21 13 -31 38 -31c13 0 24 2 34 5h3v-72c-13 -5 -33 -9 -66 -9z" />
    <glyph glyph-name="hungarumlaut" unicode="&#x2dd;" 
d="M281 618l41 154h125l-82 -154h-84zM110 618l42 154h126l-83 -154h-85z" />
    <glyph glyph-name="uni0394" unicode="&#x394;" horiz-adv-x="716" 
d="M28 0v101l251 643h157l253 -643v-101h-661zM303 463l-135 -354h373l-135 354c-17 44 -29 86 -37 118c-5 19 -9 36 -13 53h-2c-3 -17 -8 -34 -13 -53c-9 -32 -22 -74 -38 -118z" />
    <glyph glyph-name="uni03A9" unicode="&#x3a9;" horiz-adv-x="775" 
d="M43 0v109h125v2c-87 56 -131 149 -131 280c0 218 143 368 351 368s351 -150 351 -368c0 -132 -46 -224 -133 -280v-2h126v-109h-306v104c120 19 172 139 172 282c0 158 -79 258 -210 258c-132 0 -211 -100 -211 -258c0 -143 52 -263 172 -282v-104h-306z" />
    <glyph glyph-name="uni03BC" unicode="&#x3bc;" horiz-adv-x="587" 
d="M58 -179v713h127v-342c0 -64 36 -100 100 -100c72 0 118 54 118 129v313h126v-534h-123v76h-2c-32 -51 -78 -86 -149 -86c-33 0 -56 8 -71 24h-2c0 -9 0 -19 1 -30c1 -19 2 -43 2 -70v-93h-127z" />
    <glyph glyph-name="pi" unicode="&#x3c0;" horiz-adv-x="675" 
d="M25 447v87h617v-87h-91v-306c0 -35 14 -45 45 -45c13 0 25 2 34 5h4v-98c-19 -5 -45 -9 -74 -9c-79 0 -135 32 -135 125v328h-190v-447h-127v447h-83z" />
    <glyph glyph-name="fraction" unicode="&#x2044;" horiz-adv-x="253" 
d="M-276 -130l637 874h96l-638 -874h-95z" />
    <glyph glyph-name="uni2113" unicode="&#x2113;" horiz-adv-x="417" 
d="M76 273v324c0 109 68 155 160 155c93 0 148 -46 148 -171c0 -179 -74 -274 -186 -338v-71c0 -55 20 -72 68 -72c32 0 51 8 72 16h3v-101c-24 -11 -63 -20 -103 -20c-99 0 -162 39 -162 159v37c-17 -7 -42 -14 -59 -18v79c19 7 43 14 59 21zM243 388c28 43 47 104 47 196
c0 63 -18 80 -45 80s-47 -17 -47 -64v-267c15 13 30 31 45 55z" />
    <glyph glyph-name="Omega" unicode="&#x2126;" horiz-adv-x="775" 
d="M43 0v109h125v2c-87 56 -131 149 -131 280c0 218 143 368 351 368s351 -150 351 -368c0 -132 -46 -224 -133 -280v-2h126v-109h-306v104c120 19 172 139 172 282c0 158 -79 258 -210 258c-132 0 -211 -100 -211 -258c0 -143 52 -263 172 -282v-104h-306z" />
    <glyph glyph-name="estimated" unicode="&#x212e;" horiz-adv-x="720" 
d="M679 335h-477v-242c43 -35 97 -55 176 -55c133 0 206 64 242 169h55c-29 -127 -130 -220 -297 -220c-214 0 -338 148 -338 356s138 354 333 354c81 0 149 -23 198 -66c83 -68 109 -168 108 -296zM373 650c-72 0 -132 -24 -171 -57v-212h318v226c-35 25 -84 43 -147 43z
" />
    <glyph glyph-name="partialdiff" unicode="&#x2202;" horiz-adv-x="606" 
d="M429 432c-24 127 -104 187 -257 211v108c280 -29 390 -187 390 -439c0 -176 -88 -328 -282 -328c-152 0 -242 99 -242 227c0 156 106 273 259 273c52 0 101 -16 132 -52zM282 79c95 0 146 94 146 185c0 77 -40 127 -117 127c-88 0 -145 -72 -145 -179
c0 -80 39 -133 116 -133z" />
    <glyph glyph-name="Delta" unicode="&#x2206;" horiz-adv-x="716" 
d="M28 0v101l251 643h157l253 -643v-101h-661zM303 463l-135 -354h373l-135 354c-17 44 -29 86 -37 118c-5 19 -9 36 -13 53h-2c-3 -17 -8 -34 -13 -53c-9 -32 -22 -74 -38 -118z" />
    <glyph glyph-name="product" unicode="&#x220f;" horiz-adv-x="757" 
d="M75 744h607v-848h-140v729h-328v-729h-139v848z" />
    <glyph glyph-name="summation" unicode="&#x2211;" horiz-adv-x="671" 
d="M626 -104h-576v122l274 310v2l-274 298v116h566v-112h-406v-2l253 -271v-55l-260 -289v-2h423v-117z" />
    <glyph glyph-name="minus" unicode="&#x2212;" horiz-adv-x="604" 
d="M58 290v101h488v-101h-488z" />
    <glyph glyph-name="uni2215" unicode="&#x2215;" horiz-adv-x="253" 
d="M-276 -130l637 874h96l-638 -874h-95z" />
    <glyph glyph-name="uni2219" unicode="&#x2219;" horiz-adv-x="246" 
d="M53 258v140h140v-140h-140z" />
    <glyph glyph-name="radical" unicode="&#x221a;" horiz-adv-x="664" 
d="M23 224v112h170l63 -163c15 -37 26 -76 35 -105c5 -17 10 -34 15 -49h2c4 15 8 32 12 49c7 29 17 68 29 105l175 571h131l-273 -848h-143l-135 328h-81z" />
    <glyph glyph-name="infinity" unicode="&#x221e;" horiz-adv-x="747" 
d="M194 131c-107 0 -163 86 -163 186s58 185 163 185c85 0 138 -52 183 -116c43 64 94 116 175 116c96 0 163 -73 163 -185s-67 -186 -163 -186c-81 0 -132 51 -175 118c-45 -66 -98 -118 -183 -118zM202 405c-48 0 -68 -39 -68 -88s20 -89 68 -89c45 0 80 43 107 88
c-27 47 -60 89 -107 89zM544 228c49 0 70 40 70 89s-21 88 -70 88c-43 0 -74 -42 -102 -89c28 -45 59 -88 102 -88z" />
    <glyph glyph-name="integral" unicode="&#x222b;" horiz-adv-x="370" 
d="M117 -15v611c0 115 60 160 164 160c31 0 60 -3 85 -10v-99h-3c-11 3 -26 6 -49 6c-47 0 -70 -18 -70 -66v-612c0 -112 -60 -160 -163 -160c-32 0 -62 3 -86 10v100h3c12 -3 28 -6 51 -6c45 0 68 18 68 66z" />
    <glyph glyph-name="approxequal" unicode="&#x2248;" horiz-adv-x="604" 
d="M426 357c-81 0 -183 38 -239 38c-27 0 -41 -15 -44 -45h-88c1 101 53 148 125 148c81 0 184 -39 234 -39c32 0 43 15 46 43h89c-1 -92 -39 -145 -123 -145zM426 155c-81 0 -183 38 -239 38c-27 0 -41 -15 -44 -45h-88c1 103 53 148 125 148c81 0 184 -39 234 -39
c32 0 43 15 46 43h89c-1 -92 -39 -145 -123 -145z" />
    <glyph glyph-name="notequal" unicode="&#x2260;" horiz-adv-x="602" 
d="M62 377v97h272l58 113h88l-58 -113h120v-97h-169l-54 -106h223v-97h-272l-57 -113h-88l57 113h-120v97h169l54 106h-223z" />
    <glyph glyph-name="lessequal" unicode="&#x2264;" horiz-adv-x="544" 
d="M57 0v98h425v-98h-425zM482 134l-425 155v126l425 155v-109l-200 -67c-28 -9 -63 -20 -92 -28c-17 -5 -34 -9 -50 -14v-2c17 -5 34 -9 51 -13c29 -7 64 -17 91 -25l200 -67v-111z" />
    <glyph glyph-name="greaterequal" unicode="&#x2265;" horiz-adv-x="544" 
d="M487 98v-98h-425v98h425zM487 289l-425 -155v109l201 68c27 9 62 19 91 27c17 5 33 9 50 14v2c-17 4 -33 8 -50 13c-29 8 -64 17 -91 26l-201 67v110l425 -155v-126z" />
    <glyph glyph-name="lozenge" unicode="&#x25ca;" horiz-adv-x="610" 
d="M374 744l210 -373l-209 -371h-139l-210 372l209 372h139zM161 374l91 -171c19 -35 31 -63 40 -83c5 -12 10 -22 13 -31h2c3 9 7 19 12 31c8 20 21 48 40 83l88 165l-90 171c-19 35 -31 64 -40 84c-5 12 -10 22 -13 30h-2l-12 -30c-8 -20 -21 -49 -40 -84z" />
    <glyph glyph-name="fi" unicode="&#xfb01;" horiz-adv-x="605" 
d="M25 446v88h82v59c0 57 17 96 50 119c29 24 75 34 131 34c18 0 37 -1 57 -3v-95c-84 3 -111 -4 -111 -63v-51h110v-88h-110v-446h-127v446h-82zM421 0v534h126v-534h-126zM419 621v123h130v-123h-130z" />
    <glyph glyph-name="fl" unicode="&#xfb02;" horiz-adv-x="608" 
d="M25 446v88h82v59c0 57 17 96 50 119c29 24 75 35 131 34c18 0 37 -1 57 -3v-95c-84 3 -111 -4 -111 -63v-51h110v-88h-110v-446h-127v446h-82zM421 0v744h127v-744h-127z" />
    </font>
</defs>
</svg>
